<svg xmlns="http://www.w3.org/2000/svg" width="757.324" height="547.182"><g fill="#ffffff"><path d="M29.746 10.28q0 0-.43 4.17-.44 4.17-.65 8.9-.21 4.72-1.08 11.08-.88 6.36-1.63 11.66-.76 5.31-1.47 10.59-.71 5.27-1.8 10.65-1.08 5.37-1.52 9.76-.44 4.39-.63 9.65-.19 5.25-.28 9.78-.08 4.52.26 8.6.34 4.08.89 8.08.55 3.99 1.64 6.98 1.09 2.99 1.76 5.66.67 2.68 2.81 3.14 2.15.46 6.52.78 4.37.33 10.44.54 6.07.22 13.97.36 7.9.14 15.82.24 7.91.1 15.83.17 7.92.07 14.7.12 6.79.05 12.33.09 5.54.03 10.17.06 4.63.02 8.5-.04 3.87-.07 7.41-.18 3.54-.12 5.81-.33 2.26-.22 5.85-.57 3.6-.35 7.87-.58 4.27-.24 7.17-.25 2.89-.02 5.63-.05 2.75-.04 6.98-.72 4.24-.68 6.78-.79 2.54-.12 5.13-.17 2.59-.04 1.99-4.36-.6-4.31-.63-10.27-.04-5.95 1.2-12.93 1.25-6.98 2.99-14.42 1.75-7.43 2.89-13.5 1.15-6.08 2.06-10.6.91-4.52 1.21-8.21.3-3.68.26-6.4-.04-2.71-.14-5.35-.09-2.64-.37-6.09-.28-3.44-.5-5.84-.22-2.4-.44-4.6-.22-2.2-.39-4.66-.17-2.47-6.66-.5-6.5 1.98-15.23 1.98-8.73.01-18.08-.1-9.36-.11-18.65-.24-9.28-.12-18.92-.23-9.64-.11-18.68-.2-9.03-.09-17.8-.15-8.78-.07-15.92-.12-7.15-.05-12.46-.09-5.32-.04-9.48-.04-4.15 0-6.68.23-2.53.23-5.36.6-2.83.36-5.98.36-3.15-.01-6.12-2.82-2.97-2.81-3.34-3.48-.37-.66-.52-1.4-.14-.75-.03-1.5.1-.76.44-1.44.34-.68.88-1.21.54-.53 1.21-.87.68-.33 1.43-.43.76-.1 1.5.04.75.15 1.41.52.66.38 1.17.94.5.56.8 1.26.3.7.36 1.46.06.75-.12 1.49-.19.74-.6 1.38-.41.64-1.01 1.11-.59.48-1.3.74-.72.26-1.48.28-.76.02-1.48-.21-.73-.22-1.33-.67-.62-.44-1.06-1.06-.44-.62-.67-1.35-.22-.72-.19-1.48.02-.76.28-1.48.27-.71.74-1.3.48-.58 1.11-.99.64-.41 1.38-.59.74-.18 1.5-.12.75.07 1.45.37.7.3 1.26.81.57.5.57.5 0 0 2.46 1.74 2.45 1.73 5.28 2.1 2.83.37 5.36.6 2.53.23 6.68.23 4.16-.01 9.48-.05 5.31-.04 12.46-.09 7.14-.05 15.91-.13 8.77-.07 17.8-.18 9.03-.11 18.66-.26 9.63-.16 18.88-.39 9.25-.24 18.5-.6 9.26-.37 17.52-.97 8.26-.6 14.38-1.72 6.13-1.12 9.53-.94 3.4.18 5.56 1.49 2.17 1.32 3.3 3.63 1.13 2.3.96 5.15-.17 2.85-.39 5.06-.22 2.21-.46 4.63-.23 2.42-.59 5.92-.36 3.51-.58 6.25-.22 2.74-.55 5.55-.34 2.81-.75 6.76-.4 3.95-1.14 8.47-.74 4.51-1.68 10.77-.95 6.25-2.35 13.54-1.39 7.28-2.18 13.49-.78 6.2-.24 11.63.55 5.43 1.62 10.42 1.07 5 .27 8.78-.8 3.78-2.8 5.13-2 1.36-4.33 1.5-2.33.14-4.83.15-2.5.01-6.71.09-4.21.09-6.92.43-2.7.34-5.46.31-2.75-.04-5.64-.05-2.9-.02-7.17-.25-4.27-.24-7.87-.59-3.59-.35-5.85-.56-2.27-.22-5.81-.33-3.54-.12-7.41-.18-3.87-.07-8.5-.05-4.63.03-10.17.06-5.54.04-12.33.08-6.78.05-14.7.11-7.92.06-15.84.15-7.92.08-15.84.18-7.92.1-14.06.22-6.14.12-10.84.23-4.7.1-8.19-.6-3.5-.71-5.14-4.2-1.64-3.49-1.8-5.86-.17-2.36-1.05-5.87-.87-3.51-1.38-7.64-.5-4.14-.85-8.48-.35-4.34-.27-8.91.08-4.58.26-10 .19-5.42.65-10.08.45-4.66 1.48-9.86 1.02-5.2 1.69-10.5.67-5.3 1.37-10.6.71-5.3 1.48-11.38.78-6.09.89-10.99.12-4.9.44-9.08.33-4.17.41-4.54.08-.37.24-.71.17-.33.41-.62.24-.29.54-.52.31-.22.66-.37.34-.14.72-.2.37-.05.74-.02.37.04.73.16.36.12.67.33.32.2.58.48.26.27.44.6.19.33.29.69.1.36.11.74.01.37.01.37h0zm-3.991 172.792q0 0 1.12 3.41 1.12 3.42 2.09 5.98.97 2.55 1.81 5.7.84 3.14 1.23 6.61.39 3.47.54 6.84.15 3.37.14 7.09-.02 3.71-.18 7.94-.17 4.24-.26 8.31-.1 4.08-.07 7.71.02 3.62.36 7.27.35 3.65.84 7.49.49 3.84.77 7.52.29 3.68.51 6.76.22 3.08.41 5.54.2 2.45.36 4.64.16 2.18.42 5.89.25 3.71.45 6.01.19 2.29.33 5.63.13 3.34-1.94 4.11-2.07.77 1.38.05 3.44-.72 7.64-2.07 4.19-1.35 8.99-2.67 4.8-1.32 9.94-2.56 5.14-1.25 11.77-1.76 6.64-.51 14.36-.66 7.72-.15 14.78-.17 7.06-.03 13.1-.02 6.04.02 10.12 0 4.09-.02 6.58-.25 2.5-.23 4.7-.43 2.2-.2 4.65-.36 2.46-.15 4.63-.29 2.18-.14 6.48-.88 4.3-.74 7.44-1.57 3.14-.83 5.74-1.13 2.61-.29 5.89-.42 3.28-.13 6.04-.08 2.76.05 5.45.09 2.7.03 5.25-.1 2.55-.13 4.85-.23 2.3-.1 4.12-.19 1.82-.09 2.56 0 .74.09 1.44.35.69.27 1.31.69.61.42 1.1.98.5.56.85 1.22.34.66.52 1.38.18.73.18 1.47 0 .75-.18 1.47-.18.72-.53 1.38-.34.66-.84 1.22-.49.56-1.1.98-.62.42-1.31.69-.7.26-1.44.35-.74.09-3.83-3.09-3.1-3.18-3.2-5.37-.11-2.18.01-7.08.11-4.91.18-7.61.07-2.71.35-6.52.28-3.81.43-7.32.16-3.52.26-6.91.1-3.4.57-7 .46-3.6.74-7.13.28-3.53.39-6.95.12-3.41.11-6.39-.01-2.97.35-6.05.35-3.09.41-5.28.06-2.18.97-5.54.91-3.36 1.16-5.76.25-2.4.31-4.56.06-2.16-.03-5.66-.09-3.49-.23-6.07-.13-2.57-.25-5.03-.13-2.45-2.07-.46-1.94 1.99-7.42 2.32-5.49.32-11.33.33-5.84.01-12.27.65-6.42.64-12.78.86-6.36.22-12.48.26-6.12.04-11.38.02-5.25-.02-9.38-.03-4.13 0-7.79.08-3.65.09-6.72.24-3.07.16-5.23.69-2.15.54-5.67 1.1-3.51.57-6.36.85-2.84.29-6.98.45-4.15.15-8.14.27-3.99.12-6.5.26-2.51.14-5.12.25-2.62.11-5.8.18-3.17.07-5.71.19-2.55.12-4.85.17-2.31.05-3.34-.12-1.03-.17-1.95-.66-.93-.49-1.65-1.25-.71-.76-1.15-1.71-.44-.95-.56-1.99-.11-1.03.12-2.05.22-1.03.76-1.91.54-.9 1.34-1.57.79-.68 1.76-1.07.97-.38 2.02-.44 1.04-.05 2.05.22 1 .28 1.87.87.86.59 1.5 1.42.63.83.96 1.81.34.99.34 2.04 0 1.04-.34 2.03-.33.99-.96 1.82-.64.84-1.5 1.42-.87.59-1.87.87-1.01.28-2.05.22-1.05-.06-2.02-.44-.97-.39-1.77-1.07-.79-.67-1.33-1.57-.54-.89-.76-1.92-.23-1.02-.11-2.05.11-1.04.55-1.98.44-.95 1.16-1.71.71-.76 1.64-1.25.92-.49 1.95-.65 1.03-.17 1.03-.17 0 0 2.31.05 2.3.05 4.85.16 2.54.12 5.71.19 3.18.07 5.8.18 2.61.11 5.12.25 2.5.14 6.49.25 3.99.12 8.1.26 4.1.15 6.79.35 2.68.2 5.81.3 3.12.11 5.86-.12 2.73-.23 5.8-.09 3.07.14 6.72.21 3.64.06 7.76 0 4.11-.07 9.32-.22 5.2-.16 11.2-.44 5.99-.28 12.05-.81 6.06-.52 12.78-1.64 6.72-1.12 12.16-1.69 5.43-.56 10.41-1.58 4.97-1.01 9.17-1.95 4.2-.94 7.34-.06 3.15.88 4.73 4.51 1.58 3.63 1.45 6.1-.13 2.48-.3 5.11-.17 2.62-.44 6.36-.27 3.74-.51 6.19-.24 2.45-.7 5.54-.46 3.09-1.2 5.5-.75 2.42-1.03 4.88-.27 2.46-.7 4.96-.43 2.5-.5 5.52-.07 3.01-.09 6.53-.01 3.52-.06 7.39-.05 3.87-.34 6.94-.29 3.08-.19 6.47.1 3.39.25 6.91.16 3.51.44 7.32.28 3.81.35 6.51.07 2.71.17 5.49.1 2.79.06 6.52-.04 3.73-3.06 1.3-3.03-2.42-2.29-2.33.74.09 1.44.35.69.27 1.31.69.61.42 1.1.98.5.56.84 1.22.35.66.53 1.38.18.72.18 1.47 0 .74-.18 1.47-.18.72-.52 1.38-.35.66-.84 1.22-.5.56-1.11.98-.62.42-1.31.69-.7.26-1.44.35-.74.09-2.56 0-1.82-.09-4.12-.19-2.3-.1-4.85-.23-2.55-.12-5.24-.09-2.69.04-5.44.09-2.75.06-6.77-.07-4.02-.13-6.48-.12-2.47.02-4.69.43-2.22.41-4.36.46-2.15.05-4.63.34-2.47.3-4.66.16-2.19-.15-4.64-.29-2.45-.15-4.64-.35-2.2-.19-4.69-.41-2.49-.21-6.57-.19-4.07.02-10.09.13-6.01.1-13.01.29-7 .19-14.5.55-7.51.36-13.46 1.05-5.95.69-10.79 2.26-4.83 1.58-9.2 3.32-4.37 1.74-9.24 4.02-4.87 2.28-10.75 2.67-5.87.38-7.94-5.35-2.07-5.73-1.94-9.07.13-3.33.32-5.62.19-2.29.43-5.97.23-3.69.36-5.84.13-2.15.24-4.55.11-2.4.13-5.38.03-2.98-.15-6.41-.17-3.44-.76-7.4-.6-3.96-1.02-7.95-.42-3.99-.4-7.62.01-3.62-.1-7.69-.12-4.06-.33-8.25-.22-4.19-.35-7.79-.13-3.6-.24-6.73-.12-3.12-.37-6-.24-2.87-.9-5.73-.65-2.85-1.4-5.48-.75-2.63-1.91-6.04-1.16-3.41-1.26-3.87-.09-.47-.07-.93.01-.48.15-.94.13-.46.37-.87.24-.41.57-.75.33-.35.73-.6.4-.26.85-.41.46-.15.93-.19.47-.03.94.04.47.08.9.27.44.18.82.47.38.29.69.66.3.36.5.8.2.43.2.43h0zM231.69 64.924q0 0 4.88 1.4 4.88 1.39 7.63 1.77 2.75.39 5.01.9 2.25.51 6.06.58 3.81.07 7.01.18 3.21.11 6.86.26 3.65.14 6.72.14 3.08 0 6.97.85 3.89.86 5.15 2.79 1.25 1.94 1.55 4.86.3 2.93.34 5.9.03 2.97.27 6.24.25 3.27.27 7.21.02 3.94-.06 7.88-.08 3.94-.27 8.27-.18 4.34-.33 9.21-.15 4.88-.26 9.23-.12 4.35-.08 8.09.03 3.75.16 6.86.13 3.11.62 5.7.5 2.58.82 5.04.33 2.46.86 4.74.53 2.27.83 5.08.31 2.8.41 5.91.11 3.1-.27 6.58-.37 3.48-.53 6.58-.15 3.1-.18 5.95-.02 2.84 0 5.57.03 2.72.1 5.02.07 2.29.25 5.9.18 3.61.31 7.51.12 3.9.22 7.85.09 3.95 1.05 7.21.96 3.26-.19 8.41-1.16 5.15-4.48 6.53-3.32 1.37-6.22 1.54-2.91.17-5.44.23-2.53.06-5.31.1-2.78.03-5.98.04-3.21 0-5.41.04-2.21.05-4.77.07-2.56.03-4.59.04-2.04.02-3.12-.16-1.09-.18-2.06-.69-.97-.52-1.73-1.32-.75-.79-1.21-1.79-.46-1-.58-2.09-.12-1.09.12-2.16.23-1.08.8-2.02.56-.94 1.4-1.65.84-.71 1.86-1.12 1.02-.41 2.12-.46 1.09-.06 2.15.23 1.06.29 1.97.91.91.62 1.57 1.49.67.88 1.02 1.92.35 1.04.35 2.14 0 1.1-.35 2.14-.35 1.04-1.02 1.91-.66.88-1.57 1.49-.91.62-1.97.91-1.06.3-2.15.24-1.1-.06-2.12-.47-1.02-.41-1.86-1.12-.84-.71-1.4-1.65-.57-.94-.8-2.01-.24-1.08-.12-2.17.12-1.09.58-2.09.46-1 1.22-1.79.75-.8 1.72-1.31.97-.52 2.06-.7 1.08-.17 1.08-.17 0 0 2.04.01 2.03.02 4.59.04 2.56.03 4.77.07 2.2.04 5.4.04 3.21.01 5.97.04 2.76.03 6.38.05 3.62.03 6 .37 2.38.33.57 1.61-1.81 1.28-2.56-1.1-.75-2.39-.88-5.11-.13-2.72-.04-6.67.09-3.95.22-7.86.13-3.9.32-7.52.2-3.63.29-5.95.1-2.32.18-5.1.07-2.77.17-5.73.1-2.95.24-6.34.14-3.39.45-6.26.32-2.86.27-5.75-.06-2.89-.14-5.27-.08-2.37-.44-5.12-.37-2.76-.37-4.99 0-2.24-.26-5.33-.27-3.09-.14-6.2.13-3.12.16-6.86.02-3.75-.1-8.09-.12-4.34-.3-9.2-.17-4.86-.42-9.14-.25-4.28-.47-8.09-.23-3.82-.55-7.41-.33-3.58-.89-7.31-.55-3.73-.87-7.98-.31-4.25-3.39-4.27-3.09-.02-6.78.09-3.69.12-7.05.13-3.36.02-5.9-.18-2.55-.19-6.56-1.29-4.01-1.1-6.97-1.68-2.96-.58-7.96-1.47-4.98-.88-5.51-1.07-.52-.19-.98-.5-.47-.31-.84-.72-.38-.41-.64-.9-.27-.49-.41-1.03-.14-.54-.15-1.1-.01-.54.12-1.09.12-.54.37-1.04.25-.49.62-.92.36-.42.81-.74.46-.32.98-.53.51-.2 1.06-.28.56-.07 1.1-.02.55.06.55.06h0z"/><path d="M291.405 146.068q0 0 2.64 0 2.65-.01 6.26-.66 3.62-.66 6.8-.9 3.19-.23 6.05-.34 2.86-.11 3.81.05.95.15 1.79.59.85.45 1.51 1.14.66.7 1.07 1.57.4.86.51 1.82.11.95-.1 1.88-.2.93-.69 1.75-.49.83-1.22 1.45-.73.62-1.62.98-.89.35-1.84.41-.96.05-1.88-.2-.93-.25-1.72-.79-.8-.53-1.38-1.29-.58-.76-.89-1.67-.31-.9-.31-1.86 0-.95.3-1.86.3-.91.88-1.68.58-.76 1.37-1.3.79-.54 1.71-.8.93-.26 1.88-.21.96.05 1.85.4.89.35 1.62.97.74.62 1.23 1.44.5.82.71 1.75.2.94.1 1.89-.1.94-.5 1.81-.4.87-1.05 1.57-.66.7-1.51 1.15-.84.45-1.79.61-.94.16-.94.16 0 0-1.8-.02-1.79-.02-4.13-.1-2.34-.08-5.46-.03-3.12.06-5.52.42-2.41.37-5.08.36-2.66 0-3.28-.07-.63-.08-1.22-.3-.59-.23-1.11-.59-.52-.35-.94-.83-.42-.47-.71-1.03-.29-.56-.44-1.17-.16-.61-.16-1.24 0-.63.16-1.24.15-.61.44-1.17.29-.56.71-1.03.42-.48.94-.84.52-.35 1.11-.58.59-.22 1.22-.3.62-.07.62-.07h0zm55.482-30.745q0 0-.03 3.03-.03 3.04.02 5.47.06 2.42.44 4.6.38 2.18.9 4.63.53 2.44 2.29 6.38 1.76 3.94 2.27 6.91.51 2.97.68 5.73.18 2.76.24 5.45.07 2.69.09 5.34.02 2.66.38 4.93.35 2.27 1.23 6.27.88 4 1.18 7.17.29 3.16.41 7.09.11 3.94-.04 4.89-.15.95-.6 1.81-.44.85-1.14 1.52-.7.66-1.57 1.07-.87.41-1.83.52-.96.11-1.9-.09-.94-.2-1.77-.7-.83-.49-1.46-1.22-.63-.73-.99-1.63-.36-.89-.42-1.85-.05-.97.2-1.9.25-.93.79-1.73.54-.8 1.3-1.39.77-.58 1.68-.9.91-.31 1.88-.31.96-.01 1.87.3.92.3 1.69.88.77.58 1.32 1.37.54.8.8 1.73.27.92.22 1.89-.05.96-.4 1.86-.35.9-.97 1.63-.63.74-1.45 1.24-.82.5-1.76.72-.94.21-1.9.11-.96-.1-1.84-.5-.88-.4-1.58-1.06-.7-.66-1.16-1.51-.45-.85-.62-1.8-.16-.95-.16-.95 0 0 .04-2.12.03-2.11.08-5.08.05-2.97-.07-5.73-.13-2.76-.69-5.26-.56-2.5-.99-5.49-.42-3-.45-5.59-.03-2.59-.09-5.1-.06-2.51-.17-4.83-.12-2.32-.98-6.15-.87-3.83-1.99-6.59-1.12-2.76-1.67-5.52-.56-2.76-.94-5.68-.38-2.92-.32-5.36.05-2.43.02-5.47-.03-3.03.05-3.62.07-.6.28-1.16.21-.56.56-1.05.34-.5.79-.9.45-.39.98-.67.53-.28 1.11-.43.58-.14 1.18-.14.6 0 1.18.14.58.15 1.11.43.53.28.98.67.45.4.79.9.35.49.56 1.05.21.56.28 1.16.08.59.08.59h0z"/><path d="M337.155 105.291q0 0 2.26-.45 2.27-.46 5-.69 2.73-.23 5.79-.28 3.06-.05 6.25-.03 3.19.02 5.68-.04 2.49-.06 5.07-.1 2.58-.04 5.19-.06 2.62-.03 5.94.41 3.33.44 5.95.59 2.63.14 5.63.25 3 .11 5.42.08 2.43-.02 4.97-.03 2.54-.02 4.76-.07 2.22-.06 5.07-.03 2.84.02 5.56.03 2.73 0 6.58-.13 3.86-.13 6.58-.79 2.73-.66 7.4-.78 4.68-.12 6.96-.14 2.28-.02 5.5-.13 3.22-.1 6.78-.46 3.56-.35 6.34-.51 2.78-.16 7.44 1.06 4.66 1.21 6.08 3.76 1.42 2.54 1.61 5.55.18 3.02.07 6.46-.12 3.44-.24 6.78-.12 3.34-.56 6.61-.44 3.27-.66 6.22-.22 2.94-.71 6.05-.5 3.12-.71 5.99-.22 2.87-.3 5.63-.08 2.76-.09 5.45-.02 2.68.02 4.96.05 2.29.19 5.89.14 3.6.27 6.57.14 2.98.22 6.6.08 3.62.18 6.22.09 2.6.21 4.84.12 2.24-1.72 5.86-1.84 3.62-4.53 4.3-2.69.69-4.98.73-2.29.04-5.13-.05-2.83-.09-6.31-.3-3.47-.21-7.61-.56-4.13-.35-7.78-.5-3.66-.16-7.49-.32-3.83-.16-7.35-.22-3.53-.06-6.93-.08-3.4-.03-6.35.03-2.96.05-5.44.47-2.48.43-5.34.67-2.87.24-5.22.4-2.35.17-6.01.4-3.66.24-6.65.41-2.99.17-5.87.36-2.89.18-5.94.27-3.05.09-4.02-.06-.97-.16-1.83-.62-.87-.46-1.54-1.17-.68-.72-1.09-1.61-.41-.89-.52-1.86-.1-.98.11-1.93.21-.96.72-1.8.5-.84 1.25-1.48.75-.63 1.66-.99.91-.37 1.89-.42.98-.05 1.92.21.95.26 1.76.81.81.55 1.4 1.33.6.78.91 1.71.31.93.31 1.91 0 .98-.31 1.91-.31.93-.91 1.71-.59.78-1.4 1.33-.82.55-1.76.82-.95.26-1.92.21-.98-.06-1.89-.42-.92-.36-1.66-1-.75-.63-1.26-1.47-.5-.84-.71-1.8-.21-.96-.11-1.94.11-.97.52-1.86.41-.89 1.09-1.6.67-.71 1.54-1.17.87-.46 1.83-.62.97-.16.97-.16 0 0 3.05.09 3.05.09 5.93.28 2.87.18 5.84.34 2.96.15 6.51.3 3.55.16 5.77.18 2.22.03 4.75-.05 2.54-.08 5.62-.42 3.07-.34 6.04-.28 2.96.05 6.36.03 3.4-.02 6.92-.08 3.53-.06 7.36-.23 3.83-.16 7.48-.32 3.65-.16 7.77-.51 4.13-.36 7.57-.59 3.44-.23 8.01-.43 4.58-.19 3.41 1.95-1.17 2.14-1.05-.1.12-2.24.21-4.84.1-2.6.18-6.22.08-3.63.22-6.61.14-2.98.3-6.6.15-3.63.23-5.94.07-2.31.12-5.08.05-2.76.14-5.69.08-2.92.24-6.27.16-3.35.56-5.94.4-2.59.5-5.94.09-3.34.39-5.91.29-2.58.12-5.86-.17-3.27-.24-7.72-.08-4.44-2.27-4.28-2.18.16-6.71.57-4.53.41-7.73.32-3.2-.09-5.45-.09-2.24 0-4.8.08-2.56.07-5.21.11-2.66.04-4.87.43-2.22.38-6.11.25-3.89-.13-6.62-.13-2.73 0-5.58.02-2.85.02-5.08-.04-2.24-.06-4.81-.11-2.58-.04-5.06-.12-2.47-.08-5.65-.11-3.18-.03-6.14-.2-2.97-.18-5.67-.5-2.69-.32-5.3-.34-2.6-.02-5.17-.04-2.56-.03-5.03-.07-2.47-.04-5.59.04-3.12.08-5.97.17-2.85.09-5.09.18-2.24.09-4.53.39-2.29.31-2.87.34-.57.02-1.14-.09-.57-.12-1.1-.36-.53-.25-.98-.62-.45-.36-.8-.82-.35-.47-.58-1-.23-.54-.33-1.11-.09-.57-.05-1.14.05-.58.23-1.13.18-.55.49-1.05.31-.49.73-.89.41-.41.92-.7.5-.29 1.06-.46.55-.16.55-.16h0zM32.647 537.182q0 0 .01-3.18.01-3.18.01-6.35.01-3.17.01-6.34.01-3.17.01-6.33 0-3.17-.06-5.88-.06-2.71.41-6.03.47-3.32.64-6.19.18-2.88.27-5.93.08-3.04.62-6.48.53-3.43.73-6.39.19-2.96.28-6.03.1-3.07.14-6.2.04-3.13.49-6.21.45-3.07.56-5.38.1-2.31.62-5.08.53-2.77 1.22-7.27.68-4.51.8-7.97.11-3.46.03-6.22-.08-2.76-2.25-3.9-2.16-1.14-2.74-1.63-.59-.49-1.03-1.11-.45-.62-.73-1.32-.29-.71-.4-1.46-.11-.76-.03-1.51.08-.76.33-1.48.25-.72.67-1.35.42-.64.98-1.16.56-.51 1.23-.88.66-.37 1.4-.57.72-.2 1.49-.21.76-.02 1.5.15.74.16 1.43.5.68.34-2.75.64-3.41.3-1.5-.68 1.91-.98 4.35-1.73 2.43-.75 6.74-1.2 4.3-.44 7.66-.54 3.36-.11 9.94-.67 6.58-.57 11.91-.69 5.34-.12 8.69-.65 3.36-.52 6.4-.87 3.04-.35 5.35-.95 2.3-.6 5.52-.91 3.22-.31 6.39-.42 3.17-.11 5.87-.21 2.71-.1 5.22-.18 2.51-.08 5.03-.51 2.52-.44 5.3-.7 2.79-.26 5.82-.34 3.04-.08 5.67-.15 2.63-.07 6.16-.88 3.53-.81 6.3-1.43 2.77-.61 5.34-.96 2.56-.34 4.73-.9 2.17-.56 4.76-.92 2.6-.36 7.13-1.12 4.53-.75 7.62-.98 3.08-.23 5.8-1.11 2.71-.89 8.05-.68 5.34.2 7.36 3.53 2.02 3.33 2.04 7.6.03 4.26-.08 7-.1 2.75-.67 7.69-.57 4.94-.85 9.09-.29 4.16-.35 6.46-.07 2.3-.11 4.64-.04 2.35 0 5.97.04 3.63.06 7.33.03 3.7.01 5.94-.02 2.24-.05 4.55-.02 2.32-.11 5.12-.09 2.79.43 8.07.52 5.28.63 7.5.11 2.21.84 6.16.73 3.95.84 6.32.12 2.36.22 6.42.1 4.07.18 7.59.08 3.51-.66 8.69-.75 5.17-4.06 6.69-3.3 1.51-7.45 2.22-4.15.71-6.63.78-2.48.07-5.35.01-2.88-.06-5.45-.09-2.58-.04-5.04-.06-2.45-.02-5.32-.1-2.86-.08-5.9-.17-3.04-.1-6.15-.19-3.1-.1-6.7-.27-3.59-.17-7.4-.36-3.8-.18-7.23-.25-3.44-.06-7.16-.18-3.72-.11-7.65.54-3.93.65-7.29 1.12-3.35.48-6.19.76-2.83.29-5.42.47-2.59.18-5.05.31-2.47.13-4.89.23-2.41.09-5.26.12-2.85.03-6.32.22-3.47.19-6.23.41-2.76.22-4.96.33-2.21.12-4.67.84-2.47.73-4.74.96-2.27.23-4.83.36-2.57.14-6.03-.32-3.47-.45-5.37 3.99-1.9 4.43-2.56 5.09-.65.67-1.49 1.09-.83.41-1.76.54-.91.14-1.83-.04-.92-.17-1.73-.62-.82-.46-1.45-1.15-.62-.69-1-1.55-.37-.85-.45-1.79-.08-.92.14-1.82.22-.91.72-1.7.5-.79 1.23-1.38.72-.59 1.6-.91.87-.33 1.8-.36.93-.03 1.82.24.89.27 1.66.81.76.54 1.31 1.3.54.76.82 1.65.28.89.26 1.81-.02.94-.34 1.81-.32.88-.9 1.61-.58.73-1.37 1.24-.78.51-1.68.74-.91.23-1.83.15-.93-.07-1.79-.43-.86-.37-1.56-.99-.7-.62-1.16-1.43-.46-.81-.64-1.73-.18-.91-.06-1.83.12-.92.53-1.76.41-.84.41-.84 0 0 5.14-6.83 5.14-6.83 10.05-7.09 4.9-.26 7.25-.17 2.35.09 4.99.06 2.63-.02 4.87-.57 2.23-.56 4.54-.44 2.3.12 5.06.33 2.75.22 6.22.41 3.47.18 6.3.2 2.83.01 5.21.08 2.38.08 4.79.15 2.4.07 4.86.11 2.45.04 5.07 0 2.61-.04 5.65-.35 3.04-.3 7.74-1.46 4.7-1.17 8.44-1.29 3.74-.11 7.18-.18 3.43-.06 7.23-.25 3.81-.18 7.4-.36 3.59-.17 6.7-.26 3.11-.1 6.14-.19 3.03-.1 5.89-.19 2.85-.08 5.29-.12 2.43-.04 4.96-.1 2.53-.07 5.23-.21 2.71-.14 6.46-.41 3.75-.28 6.96-.42 3.21-.14 1.83 2.5-1.38 2.65-2.05-.79-.66-3.43-.6-6.92.06-3.49.05-7.36 0-3.87-.18-7.43-.19-3.56-.78-8.39-.6-4.83-.84-7.42-.24-2.58-.78-5.64-.54-3.05-.63-5.86-.08-2.81-.11-5.13-.02-2.31-.04-4.55-.02-2.25.01-5.95.02-3.71.08-7.37.06-3.65.05-6.04-.02-2.4-.01-4.82.01-2.43.06-4.92.06-2.5.26-5.18.21-2.68.54-6.36.34-3.69.22-6.4-.13-2.7 1.06-5.9 1.19-3.2 4.6-3.06 3.42.14.01 1.66-3.41 1.52-5.65 1.46-2.24-.05-5.86.61-3.62.67-6.86.89-3.24.21-7.22.89-3.99.68-6.16 1.26-2.18.58-4.97.67-2.79.09-5.05.63-2.26.54-5.26.61-3 .07-5.55.53-2.56.46-5.14.46-2.58 0-5.38.09-2.8.08-5.19.21-2.39.14-5.64.63-3.24.49-5.72.45-2.48-.05-5.1-.06-2.63-.01-5.57.09-2.95.09-5.57.27-2.61.17-5.48.71-2.87.53-5.57.72-2.7.2-6.45.94-3.74.75-8.69 1.48-4.95.72-11.88 2.15-6.92 1.43-9.64 1.75-2.73.31-5.94.98-3.21.67-6.17.44-2.97-.23-6.55.32-3.56.54-4.14.05-.59-.49-1.03-1.11-.45-.62-.73-1.32-.29-.71-.4-1.46-.11-.76-.03-1.51.08-.76.33-1.48.25-.72.67-1.35.42-.64.98-1.16.56-.51 1.23-.88.66-.37 1.4-.57.72-.2 1.49-.21.76-.02 1.5.15.74.16 1.43.5.68.34 1.52.65.84.3 2.87 1.88 2.03 1.58 3.62 5.22 1.59 3.64 1.43 5.82-.15 2.17-.45 5.91-.29 3.74-1.21 7.82-.92 4.07-1.25 6.75-.33 2.68-.88 4.78-.55 2.1-.85 4.82-.3 2.71-.79 5.06-.49 2.34-.52 5.54-.03 3.19-.12 6.44-.08 3.24-.3 6.6-.22 3.36-.67 6.22-.44 2.86-.52 6.07-.08 3.21-.29 6.5-.21 3.28-.65 5.91-.44 2.62-.5 5.33-.06 2.7-.06 5.87 0 3.16.01 6.33 0 3.17.01 6.34 0 3.17.01 6.35.01 3.18-.06 3.72-.06.54-.26 1.05-.19.51-.5.96-.31.45-.72.81-.41.37-.89.62-.49.25-1.02.38-.53.13-1.07.13-.54 0-1.07-.13-.53-.13-1.02-.38-.48-.25-.89-.62-.41-.36-.72-.81-.31-.45-.5-.96-.2-.51-.26-1.05-.07-.54-.07-.54h0zm324.172-163.717q0 0 .47 2.71.46 2.73.72 5.47.26 2.74.33 5.76.08 3.01.07 6.13 0 3.12-1.05 6.9-1.05 3.78-1.37 7.84-.32 4.05-.26 7.53.07 3.47.15 7.33.09 3.85.12 8.24.03 4.39-.02 7.17-.06 2.78-.01 7.13.04 4.35.05 6.66 0 2.31.84 7.7.83 5.38.77 6.32-.06.94-.41 1.81-.35.87-.97 1.58-.61.71-1.42 1.19-.81.48-1.73.67-.91.2-1.84.09-.93-.11-1.78-.51-.85-.4-1.52-1.05-.68-.65-1.11-1.49-.44-.83-.58-1.76-.15-.92.01-1.85.16-.93.61-1.75.44-.83 1.13-1.47.68-.64 1.54-1.03.85-.38 1.79-.48.92-.09 1.84.12.91.2 1.71.69.81.49 1.41 1.21.6.72.94 1.6.34.87.39 1.81.04.94-.22 1.84-.26.91-.79 1.68-.53.77-1.28 1.33-.76.57-1.65.86-.89.29-1.82.29-.94-.01-1.83-.32-.88-.3-1.63-.88-.74-.57-1.26-1.35-.52-.79-.76-1.69-.25-.91-.25-.91 0 0-.24-3.07-.24-3.07-.75-5.95-.51-2.88-.5-5.21 0-2.34.05-6.68.04-4.35-.01-7.13-.05-2.78-.04-5.06.01-2.27.04-4.4.03-2.13.15-6.06.12-3.93.37-7.67.26-3.74.51-6.29.25-2.55.77-5.04.51-2.48 1.25-4.93.75-2.45.67-5.42-.07-2.98-.17-5.74-.09-2.77-.22-5.08-.13-2.31-.57-5.04-.44-2.73-.47-3.33-.03-.59.09-1.17.12-.59.37-1.13.26-.55.64-1.01.37-.47.85-.83.48-.36 1.03-.6.55-.24 1.14-.34.59-.1 1.18-.05.6.05 1.17.23.57.19 1.08.51.51.32.92.75.42.43.72.95.31.52.47 1.09.17.58.17.58h0z"/><path d="M350.006 361.337q0 0 1.84.38 1.84.39 4.01.44 2.17.05 5.73.01 3.55-.03 7-.72 3.46-.68 6.33-.72 2.88-.03 8.16-.61 5.29-.59 8.06-1 2.78-.42 5.68-.67 2.89-.24 5.04-.75 2.15-.5 4.89-.8 2.75-.31 5.91-.92 3.17-.61 5.75-.95 2.59-.33 6.28-.56 3.7-.23 6.51-.35 2.82-.12 5.73-.2 2.91-.08 6.03-.13 3.12-.05 6.27-.09 3.16-.04 5.87-.08 2.7-.05 5.3-.13 2.61-.09 4.85-.13 2.25-.04 4.6-.07 2.35-.03 7 1.35 4.66 1.39 6.18 3.94 1.52 2.56 1.78 5.13.26 2.57.26 4.95.01 2.38-1.17 6.14-1.17 3.75-2.1 6.26-.92 2.51-1.79 4.92-.88 2.42-1.29 6.43-.41 4.01-.43 7.09-.02 3.07.03 5.99.05 2.92.09 5.85.04 2.93.11 5.15.06 2.22-.54 5.42-.61 3.2-.88 6.88-.27 3.68-.3 7.32-.03 3.64-.54 7.43-.52 3.79-.77 6.8-.25 3.02-1.14 5.02-.9 2-.72 5.59.19 3.6-.39 6.14-.57 2.54-1.97 6.23-1.41 3.68-3.22 4.9-1.8 1.22-4.38 1.73-2.59.5-6.02-.28-3.43-.79-6.55-.66-3.12.12-5.29.06-2.18-.06-4.78-.64-2.6-.57-7.01-1.37-4.4-.8-7.44-.95-3.03-.14-7.82-.78-4.8-.64-7.12-.89-2.32-.26-4.73-.4-2.41-.15-5.25-.29-2.83-.15-5.86-.28-3.02-.14-5.68-.18-2.65-.05-5.81.06-3.17.1-6.09.09-2.93-.01-5.02.97-2.08.98-4.5 1.08-2.43.11-3.46-.04-1.03-.14-1.95-.61-.93-.47-1.66-1.22-.73-.74-1.19-1.68-.45-.93-.59-1.96-.13-1.04.08-2.06.2-1.02.72-1.92.52-.9 1.3-1.59.78-.69 1.74-1.09.96-.41 2-.48 1.04-.08 2.05.18 1 .26 1.88.83.87.57 1.51 1.38.65.82 1 1.8.35.98.37 2.02.02 1.04-.29 2.03-.32 1-.93 1.84-.62.84-1.47 1.44-.85.6-1.84.9-1 .29-2.04.26-1.04-.04-2.02-.41-.97-.37-1.78-1.02-.8-.66-1.36-1.55-.55-.88-.79-1.89-.24-1.01-.15-2.05.09-1.04.51-1.99.42-.95 1.12-1.72.7-.77 1.61-1.27.91-.51 1.94-.7 1.02-.18 1.02-.18 0 0 1.76.42 1.75.42 3.75-.5 1.99-.91 5.8-.92 3.81-.01 6.98.1 3.18.11 5.84.08 2.67-.03 5.75-.14 3.07-.1 6.03-.18 2.96-.07 5.62-.05 2.66.02 7.45.5 4.79.47 8.46.5 3.67.03 6.95.5 3.29.48 5.73.94 2.45.47 5.03 1.08 2.58.61 6.7.54 4.13-.06 6.85.17 2.73.24 3.95 2.35 1.22 2.12 1.8-.89.57-3 .57-5.24.01-2.23.94-6.28.93-4.04 1.23-7.7.31-3.66.72-6.02.41-2.35.48-6.15.07-3.79.35-8.3.28-4.52.59-6.7.3-2.17.37-4.38.06-2.21.11-5.15.04-2.94.12-5.97.09-3.03.24-6.35.16-3.31.3-5.94.14-2.63.57-5.56.43-2.92 1.17-5.38.74-2.46 2.07-6.71 1.32-4.24 1.6-6.41.29-2.17-2.06-2.2-2.35-.03-5.42-.1-3.06-.07-5.97-.16-2.91-.08-6.07-.12-3.16-.03-6.3-.07-3.14-.04-6.19-.1-3.04-.06-5.56-.14-2.52-.08-5.7-.12-3.18-.04-6.46.09-3.28.12-5.62.65-2.35.55-6.29.75-3.94.21-6.78.81-2.84.6-5.26.81-2.42.22-5.74.89-3.31.67-5.85.91-2.55.23-5.51.81-2.96.57-7.05.79-4.1.22-6.51.72-2.41.5-6.3.37-3.88-.14-7.03-.64-3.14-.5-4.94-1.03-1.79-.52-2.38-.75-.58-.22-1.09-.58-.52-.35-.93-.82-.41-.47-.7-1.03-.29-.55-.44-1.16-.15-.61-.14-1.22 0-.63.15-1.23.15-.61.44-1.16.3-.56.71-1.02.42-.47.93-.82.52-.36 1.11-.58.58-.22 1.2-.29.61-.07 1.23.01.62.07.62.07h0zm257.551-198.1q0 0 1.37 2.74 1.37 2.75 2.15 6.31.78 3.55 1.06 6.89.27 3.35.37 6.59.1 3.23.13 6.43.03 3.19.11 5.91.07 2.71.43 5.85.37 3.14.62 6.1.26 2.96.45 5.13.19 2.17.41 6.19.22 4.01.23 6.75 0 2.74.03 5.26.02 2.53.05 4.97.03 2.45-.45 5.34-.47 2.88-.58 6.18-.11 3.3-.03 6 .07 2.7 3.35 1.12 3.28-1.58 6.08-2.02 2.8-.44 6.83-2.12 4.03-1.68 7.51-2.14 3.48-.46 6.33-.94 2.84-.47 7.25-.48 4.4 0 8.48.11 4.08.11 8.08.24 4 .12 7.97.23 3.98.11 6.57-.02 2.6-.14 5.07-.26 2.47-.12 7.11.17 4.65.28 7.47.93 2.83.65 6.12 1.98 3.29 1.33 6.29 1.81 3 .47 5.3.58 2.31.12 5.24.24 2.93.13 6.14.44 3.21.3 3.98-2.46.78-2.76.98-4.9.2-2.14.32-4.5.12-2.36.75-5.61.63-3.26 1.5-6.76.88-3.51 1.24-6.54.36-3.02.47-5.69.12-2.66.65-5.59.53-2.93.67-6.74.15-3.81.06-6.62-.09-2.82-.19-5.91-.1-3.09-.19-5.78-.09-2.7-.82-5.27-.72-2.57-1.57-4.84-.85-2.28-5.79-1.47-4.93.8-8.54.54-3.6-.27-7.4-.53-3.81-.26-6.79-.3-2.99-.04-5.63-.02-2.65.01-5.23-.44-2.59-.45-6.65-.59-4.06-.14-6.79-.2-2.73-.07-7 .6-4.27.67-6.74.94-2.47.26-4.72.39-2.25.13-4.79.23-2.54.09-5.39.16-2.86.07-5.36.13-2.5.05-4.88-.52-2.39-.57-5.16-.67-2.78-.1-5.89-.12-3.1-.02-6.46-.03-3.36 0-6.05.02-2.7.02-5.22.66-2.52.64-5.5.81-2.98.17-8.41-2.01-5.42-2.18-6.43-5.89-1.01-3.72-1.04-4.75-.03-1.03.28-2.02.3-.99.91-1.83.6-.84 1.45-1.44.84-.6 1.83-.91.99-.3 2.01-.27 1.04.03 2.01.39.97.36 1.78 1.01.81.65 1.36 1.52.56.87.81 1.88.25 1 .16 2.03-.08 1.03-.5 1.98-.41.95-1.1 1.72-.69.77-1.59 1.28-.91.51-1.92.7-1.02.19-2.04.05-1.02-.14-1.95-.6-.93-.46-1.66-1.19-.73-.74-1.19-1.67-.46-.92-.6-1.95-.13-1.02.06-2.03.2-1.02.71-1.92.51-.9 1.28-1.59.78-.69 1.73-1.1.95-.41 1.98-.49 1.02-.08 2.03.17 1 .25 1.87.81.88.56 1.52 1.36.65.81 1.01 1.79.35.97.35.97 0 0 .2 2.6.19 2.6-1.75.36-1.95-2.24.79-2.23 2.74.01 4.94-.1 2.21-.11 4.57-.71 2.36-.59 5.16-.57 2.8.02 6.17.02 3.38 0 6.71.02 3.34.03 5.65.22 2.32.2 4.99.86 2.68.66 5.1.72 2.42.04 5.27.11 2.85.07 5.37.16 2.52.08 5.54.21 3.02.12 6.03.02 3.02-.1 6.05-.57 3.03-.48 5.91-.47 2.87 0 5.31.12 2.45.12 6.48.86 4.04.75 6.66.77 2.62.02 5.6-.02 2.99-.04 6.8-.3 3.81-.25 7.43-.5 3.62-.26 6.81-.42 3.19-.17 5.36-.17 2.17 0 6.35 1 4.19 1.01 5.78 4.74 1.59 3.72 2.66 6.7 1.06 2.98 1.42 5.69.35 2.71.26 5.41-.1 2.71-.21 5.85-.12 3.14-.32 6.11-.2 2.98-.35 5.36-.15 2.38-.47 4.59-.32 2.21-.8 4.36-.48 2.16-.6 5.03-.13 2.87-.33 6.45-.21 3.59-.66 7.07-.46 3.49-.81 5.99-.36 2.5-.41 5.11-.06 2.62-.28 5.78-.21 3.16-.78 6.27-.57 3.12-1.52 5.54-.95 2.41-4.79 3.91-3.85 1.49-6.94 1.31-3.09-.18-5.76-1.35-2.68-1.17-4.88-1.3-2.2-.14-4.73-.45-2.52-.31-6.61-.85-4.09-.53-6.77-1.57-2.69-1.04-5.37-1.68-2.68-.65-6.34-1.27-3.66-.62-6.12-.73-2.46-.11-5.05-.23-2.59-.12-6.54.03-3.94.15-7.86.37-3.93.22-7.81.55-3.88.34-7.49.86-3.61.51-6.79 1.27-3.18.76-5.33 1.06-2.15.3-4.28 1.17-2.13.86-6.76 2.36-4.62 1.5-6.8 2.33-2.17.82-4.29 1.44-2.12.63-6.35.73-4.24.1-5.72-1.46-1.49-1.56-2.83-4.94-1.32-3.37-1.18-5.51.13-2.14.39-5.73.25-3.58.96-7.65.72-4.06.75-6.49.02-2.42.04-4.94.02-2.52.07-7.33.05-4.81.13-8.61.09-3.81-.05-6.48-.14-2.68-.69-6.38-.56-3.71-.53-6.4.03-2.69-.02-5.79-.05-3.11-.16-6.13-.11-3.02-.33-5.85-.22-2.82-.6-5.23-.38-2.4-1.73-5.11-1.36-2.7-1.55-3.23-.19-.53-.25-1.09-.05-.55.03-1.1.08-.56.28-1.08.21-.52.54-.98.33-.45.76-.82.43-.36.93-.61.5-.25 1.05-.38.54-.12 1.1-.11.56.01 1.1.16.54.14 1.03.41.5.27.91.66.41.38.72.84.31.47.31.47h0zM220.645 448.036q0 0 1.81-.07 1.82-.07 4.48-.2 2.66-.14 5.47-.3 2.81-.16 5.93.39 3.12.56 5.62.56 2.5 0 4.83-.07 2.33-.07 4.69-.14 2.37-.07 6.39.76 4.01.84 6.24.7 2.22-.13 5.13-.14 2.9-.01 5.59-.04 2.7-.03 5.09-.07 2.4-.03 1.09-2.24-1.32-2.22-1.35-5.05-.03-2.83-.03-5.24 0-2.41-.74-5.43-.74-3.01-.84-5.75-.1-2.74.39-6.32.49-3.58 3.28-5.68 2.78-2.11 5.45-2.23 2.67-.12 6.69-.73 4.02-.61 6.31-.77 2.28-.16 4.5-.18 2.22-.03 5.55-.04 3.32-.02 4.47.17 1.16.19 2.2.74 1.03.55 1.84 1.4.81.85 1.3 1.91.49 1.07.62 2.23.13 1.17-.12 2.31-.25 1.15-.86 2.15-.6 1.01-1.5 1.77-.89.76-1.98 1.19-1.09.43-2.26.5-1.17.06-2.3-.25-1.13-.31-2.1-.97-.97-.66-1.68-1.59-.71-.93-1.08-2.05-.38-1.11-.38-2.28 0-1.17.37-2.28.38-1.11 1.09-2.05.71-.93 1.68-1.59.97-.66 2.1-.97 1.13-.32 2.3-.25 1.17.06 2.26.49 1.09.44 1.98 1.2.89.75 1.5 1.76.6 1 .86 2.15.25 1.14.12 2.31-.12 1.16-.62 2.23-.49 1.06-1.29 1.91-.81.86-1.85 1.41-1.03.54-2.19.73-1.16.19-1.15.19 0 0-2.31 0-2.31-.01-4.51 0-2.2.02-4.87.02-2.68.01-4.99.75-2.32.75-5.28-.58-2.97-1.32-1.74-3.37 1.22-2.05 1.79.64.57 2.69.67 5.2.1 2.52.74 4.92.64 2.41.65 4.87.02 2.46.07 5.05.06 2.6.25 5.12.19 2.53.63 5.62.44 3.07-.28 5.13-.72 2.06-2.84 3.49-2.12 1.44-4.87 2.01-2.76.58-5.14.54-2.38-.03-4.9-.06-2.51-.04-4.79-.06-2.29-.01-5.27-.11-2.99-.11-6.49-.91-3.51-.8-5.66-.8-2.14 0-4.53-.08-2.38-.07-4.9-.18-2.52-.12-4.69-.36-2.17-.24-4.62-.96-2.45-.71-5.26-.87-2.81-.16-5.47-.3-2.66-.13-4.48-.2-1.81-.07-2.44-.15-.64-.08-1.24-.3-.6-.23-1.13-.6-.53-.36-.95-.84-.43-.48-.72-1.05-.3-.57-.46-1.19-.15-.62-.15-1.26 0-.64.15-1.26.16-.62.46-1.19.29-.57.72-1.05.42-.48.95-.84.53-.37 1.13-.6.6-.22 1.24-.3.63-.08.63-.08h0z"/></g><g fill="#ffffff"><path d="M499.01 408.301q0 0 2.27-.03 2.27-.04 4.75-.18 2.48-.14 4.68-.26 2.2-.11 4.73-.21 2.54-.09 4.75-.17 2.2-.08 4.55-.15 2.34-.07 4.82-.1 2.48-.03 4.71.65 2.23.68 4.63.66 2.4-.01 4.97-.02 2.57 0 .83-3.09-1.75-3.09-2.54-6.19-.79-3.11-.94-5.8-.14-2.69-.8-4.74-.66-2.06-.79-5.52-.13-3.45-.15-6.2-.02-2.74-.03-4.99-.02-2.26.01-5.26.02-2.99.01-5.48 0-2.48.02-5.52.02-3.05.01-5.54-.01-2.49-.04-5.27-.04-2.77-.05-5.03-.01-2.26 0-5.06.02-2.81.02-5.45.01-2.65.02-5.52.02-2.88.08-6.45.06-3.56.09-6.99.04-3.43.1-7.29.06-3.86.06-7.13.01-3.27-.57-6.77-.58-3.5-.72-7.07-.14-3.56-.18-6.3-.05-2.73-.69-5.26-.65-2.53-.8-6-.15-3.47-.17-6.68-.03-3.22-.03-6.39-.01-3.17-.63-7.32-.63-4.14-.72-8.26-.08-4.12-.04-6.41.03-2.29-.32-5.68-.35-3.39-.56-6.06-.21-2.68-.26-5.17-.05-2.49-.12-6.19-.08-3.7-.76-6.82-.68-3.11-.92-5.8-.23-2.68-.3-5.09-.07-2.4-.74-5.11-.67-2.71-.83-6.12-.16-3.41-.2-5.95-.05-2.55-.1-5.34-.06-2.78-1.27-4.76-1.22-1.99-1.87-4.13-.65-2.15-2.67-.57-2.02 1.58-4.38 1.6-2.36.02-4.73.04-2.37.02-4.75.03-2.37.02-4.74.03-2.37.02-4.75.03-2.36.01-3.39.63-1.03.62-2.21.8-1.18.18-2.36-.03-1.18-.21-2.23-.78-1.05-.57-1.86-1.45-.81-.88-1.3-1.97-.49-1.09-.6-2.28-.12-1.19.16-2.36.27-1.16.9-2.18.62-1.02 1.55-1.78.92-.76 2.03-1.19 1.12-.43 2.31-.48 1.2-.05 2.35.28 1.15.34 2.13 1.02.97.68 1.68 1.65.71.96 1.08 2.09.37 1.14.35 2.34-.01 1.19-.41 2.32-.39 1.13-1.13 2.07-.73.95-1.72 1.61-1 .66-2.16.96-1.15.31-2.35.23-1.19-.08-2.29-.54-1.11-.46-2.01-1.24-.9-.79-1.51-1.82-.6-1.03-.84-2.2-.25-1.17-.1-2.36.14-1.19.66-2.27.51-1.08 1.35-1.93.83-.86 1.89-1.41 1.07-.55 1.07-.55 0 0 1.3-.35 1.31-.36 4.1-.96 2.77-.6 5.15-.59 2.37.01 4.74.03 2.37.01 4.75.03 2.37.02 4.74.04 2.38.02 4.77.04 2.4.03 5.07.13 2.67.1 5.77 1 3.1.91 5.48 4.9 2.38 3.99 3.66 6.01 1.28 2.02 1.81 4.75.53 2.73.48 5.49-.05 2.76-.05 5.18 0 2.42-.06 5.29-.06 2.87.69 5.07.75 2.19.76 4.67.01 2.48-.01 5.43-.01 2.95.62 6.88.64 3.93.66 7.47.03 3.53.32 7.6.29 4.07.87 8.73.58 4.67.72 8.89.13 4.23.29 7.05.15 2.82.76 5.19.6 2.36.59 5.12-.01 2.75 0 5.89.01 3.13.05 6.13.04 2.99.15 5.19.11 2.2.71 5.72.59 3.52.63 6.6.04 3.09.24 5.99.21 2.9.78 5.64.57 2.75.58 6.05.01 3.31.07 7.17.06 3.86.09 7.29.04 3.43.1 6.99.06 3.57.07 6.45.02 2.87.02 5.52.01 2.64.02 5.45.02 2.8.01 5.06-.01 2.26-.05 5.03-.04 2.78-.04 5.27-.01 2.49.01 5.53.02 3.05.02 5.53-.01 2.48.01 5.48.03 2.99.02 5.21-.01 2.22.02 4.84.03 2.62.07 5.62.04 3 .79 5.26.76 2.25.69 4.42-.07 2.16.67 5.26.73 3.09 1.55 5.33.81 2.25.77 5.12-.04 2.88-.52 5.51-.48 2.61-2.02 4.32-1.54 1.7-6.45 2.99-4.91 1.28-8.08 1.21-3.16-.06-6.27-.88-3.1-.82-5.36-.85-2.25-.03-4.59-.1-2.35-.07-4.55-.15-2.21-.08-4.75-.17-2.53-.1-4.73-.21-2.2-.12-4.68-.26-2.48-.14-4.75-.18-2.27-.03-2.9-.11-.64-.08-1.24-.31-.6-.23-1.13-.59-.53-.37-.96-.85-.42-.48-.72-1.05-.3-.57-.45-1.19-.16-.62-.16-1.26 0-.64.16-1.26.15-.63.45-1.19.3-.57.72-1.05.43-.48.96-.85.53-.36 1.13-.59.6-.23 1.24-.31.63-.08.63-.08h0z"/><path d="M549.877 215.505q0 0 1.81-.07 1.82-.07 4.03-.21 2.2-.14 4.7-.3 2.5-.16 4.84-.85 2.35-.68 6.53-1.86 4.18-1.17 5.25-1.12 1.07.04 2.07.43 1 .38 1.82 1.07.83.68 1.39 1.59.56.91.8 1.96.25 1.04.14 2.11-.1 1.06-.54 2.04-.44.96-1.17 1.75-.72.79-1.66 1.3-.94.51-2 .69-1.05.19-2.11.03-1.06-.16-2.01-.65-.95-.5-1.7-1.26-.74-.77-1.2-1.73-.46-.97-.59-2.03-.13-1.06.09-2.11.22-1.05.76-1.97.54-.93 1.35-1.63.81-.7 1.8-1.11.99-.41 2.06-.47 1.07-.07 2.1.2 1.03.28 1.93.87.89.59 1.55 1.43.65.85 1.01 1.86.35 1.01.36 2.08.01 1.07-.32 2.09-.33 1.02-.97 1.87-.63.86-1.51 1.47-.88.61-1.91.9-1.03.3-1.03.3 0 0-1.37.23-1.38.22-3.92.91-2.53.7-5.94 1.08-3.4.39-5.9.23-2.5-.16-4.7-.3-2.21-.14-4.03-.21-1.81-.07-2.44-.15-.63-.07-1.22-.3-.6-.23-1.12-.59-.52-.36-.94-.83-.42-.48-.72-1.04-.3-.57-.45-1.18-.15-.62-.15-1.25 0-.63.15-1.25.15-.62.45-1.18.3-.56.72-1.04.42-.47.94-.83.52-.36 1.12-.59.59-.23 1.22-.3.63-.08.63-.08h0z"/></g></svg>
