<svg xmlns="http://www.w3.org/2000/svg" width="895.069" height="630.155"><g fill="#ffffff"><use href="#B"/><use href="#C"/><use href="#D"/><use href="#D" x="228.605"/><use href="#D" x="453.843" y="-319.965"/><use href="#B" x="453.843"/><use href="#D" x="228.605" y="158.135"/><use href="#D" x="453.843" y="158.135"/><use href="#B" x="682.269" y="-164.907"/><use href="#D" x="682.269" y="-155.058"/><use href="#C" x="453.664" y="319.966"/><use href="#C" x="-228.605" y="478.101"/></g><defs ><path id="B" d="M18.362 178.949q0 0 1.12 3.41 1.12 3.42 2.09 5.98.97 2.55 1.81 5.7.84 3.14 1.23 6.61.39 3.47.54 6.84.15 3.37.14 7.09-.02 3.71-.18 7.94-.17 4.24-.26 8.31-.1 4.08-.07 7.71.02 3.62.36 7.27.35 3.65.84 7.49.49 3.84.77 7.52.29 3.68.51 6.76.22 3.08.41 5.54.2 2.45.36 4.64.16 2.18.42 5.89.25 3.71.45 6.01.19 2.29.33 5.63.13 3.34-1.94 4.11-2.07.77 1.38.05 3.44-.72 7.64-2.07 4.19-1.35 8.99-2.67 4.8-1.32 9.94-2.56 5.14-1.25 11.77-1.76 6.64-.51 14.36-.66 7.72-.15 14.78-.17 7.06-.03 13.1-.02 6.04.02 10.12 0 4.09-.02 6.58-.25 2.5-.23 4.7-.43 2.2-.2 4.65-.36 2.46-.15 4.63-.29 2.18-.14 6.48-.88 4.3-.74 7.44-1.57 3.14-.83 5.74-1.13 2.61-.29 5.89-.42 3.28-.13 6.04-.08 2.76.05 5.45.09 2.7.03 5.25-.1 2.55-.13 4.85-.23 2.3-.1 4.12-.19 1.82-.09 2.56 0 .74.09 1.44.35.69.27 1.31.69.61.42 1.1.98.5.56.85 1.22.34.66.52 1.38.18.73.18 1.47 0 .75-.18 1.47-.18.72-.53 1.38-.34.66-.84 1.22-.49.56-1.1.98-.62.42-1.31.69-.7.26-1.44.35-.74.09-3.83-3.09-3.1-3.18-3.2-5.37-.11-2.18.01-7.08.11-4.91.18-7.61.07-2.71.35-6.52.28-3.81.43-7.32.16-3.52.26-6.91.1-3.4.57-7 .46-3.6.74-7.13.28-3.53.39-6.95.12-3.41.11-6.39-.01-2.97.35-6.05.35-3.09.41-5.28.06-2.18.97-5.54.91-3.36 1.16-5.76.25-2.4.31-4.56.06-2.16-.03-5.66-.09-3.49-.23-6.07-.13-2.57-.25-5.03-.13-2.45-2.07-.46-1.94 1.99-7.42 2.32-5.49.32-11.33.33-5.84.01-12.27.65-6.42.64-12.78.86-6.36.22-12.48.26-6.12.04-11.38.02-5.25-.02-9.38-.03-4.13 0-7.79.08-3.65.09-6.72.24-3.07.16-5.23.69-2.15.54-5.67 1.1-3.51.57-6.36.85-2.84.29-6.98.45-4.15.15-8.14.27-3.99.12-6.5.26-2.51.14-5.12.25-2.62.11-5.8.18-3.17.07-5.71.19-2.55.12-4.85.17-2.31.05-3.34-.12-1.03-.17-1.95-.66-.93-.49-1.65-1.25-.71-.76-1.15-1.71-.44-.95-.56-1.99-.11-1.03.12-2.05.22-1.03.76-1.91.54-.9 1.34-1.57.79-.68 1.76-1.07.97-.38 2.02-.44 1.04-.05 2.05.22 1 .28 1.87.87.86.59 1.5 1.42.63.83.96 1.81.34.99.34 2.04 0 1.04-.34 2.03-.33.99-.96 1.82-.64.84-1.5 1.42-.87.59-1.87.87-1.01.28-2.05.22-1.05-.06-2.02-.44-.97-.39-1.77-1.07-.79-.67-1.33-1.57-.54-.89-.76-1.92-.23-1.02-.11-2.05.11-1.04.55-1.98.44-.95 1.16-1.71.71-.76 1.64-1.25.92-.49 1.95-.65 1.03-.17 1.03-.17 0 0 2.31.05 2.3.05 4.85.16 2.54.12 5.71.19 3.18.07 5.8.18 2.61.11 5.12.25 2.5.14 6.49.25 3.99.12 8.1.26 4.1.15 6.79.35 2.68.2 5.81.3 3.12.11 5.86-.12 2.73-.23 5.8-.09 3.07.14 6.72.21 3.64.06 7.76 0 4.11-.07 9.32-.22 5.2-.16 11.2-.44 5.99-.28 12.05-.81 6.06-.52 12.78-1.64 6.72-1.12 12.16-1.69 5.43-.56 10.41-1.58 4.97-1.01 9.17-1.95 4.2-.94 7.34-.06 3.15.88 4.73 4.51 1.58 3.63 1.45 6.1-.13 2.48-.3 5.11-.17 2.62-.44 6.36-.27 3.74-.51 6.19-.24 2.45-.7 5.54-.46 3.09-1.2 5.5-.75 2.42-1.03 4.88-.27 2.46-.7 4.96-.43 2.5-.5 5.52-.07 3.01-.09 6.53-.01 3.52-.06 7.39-.05 3.87-.34 6.94-.29 3.08-.19 6.47.1 3.39.25 6.91.16 3.51.44 7.32.28 3.81.35 6.51.07 2.71.17 5.49.1 2.79.06 6.52-.04 3.73-3.06 1.3-3.03-2.42-2.29-2.33.74.09 1.44.35.69.27 1.31.69.61.42 1.1.98.5.56.84 1.22.35.66.53 1.38.18.72.18 1.47 0 .74-.18 1.47-.18.72-.52 1.38-.35.66-.84 1.22-.5.56-1.11.98-.62.42-1.31.69-.7.26-1.44.35-.74.09-2.56 0-1.82-.09-4.12-.19-2.3-.1-4.85-.23-2.55-.12-5.24-.09-2.69.04-5.44.09-2.75.06-6.77-.07-4.02-.13-6.48-.12-2.47.02-4.69.43-2.22.41-4.36.46-2.15.05-4.63.34-2.47.3-4.66.16-2.19-.15-4.64-.29-2.45-.15-4.64-.35-2.2-.19-4.69-.41-2.49-.21-6.57-.19-4.07.02-10.09.13-6.01.1-13.01.29-7 .19-14.5.55-7.51.36-13.46 1.05-5.95.69-10.79 2.26-4.83 1.58-9.2 3.32-4.37 1.74-9.24 4.02-4.87 2.28-10.75 2.67-5.87.38-7.94-5.35-2.07-5.73-1.94-9.07.13-3.33.32-5.62.19-2.29.43-5.97.23-3.69.36-5.84.13-2.15.24-4.55.11-2.4.13-5.38.03-2.98-.15-6.41-.17-3.44-.76-7.4-.6-3.96-1.02-7.95-.42-3.99-.4-7.62.01-3.62-.1-7.69-.12-4.06-.33-8.25-.22-4.19-.35-7.79-.13-3.6-.24-6.73-.12-3.12-.37-6-.24-2.87-.9-5.73-.65-2.85-1.4-5.48-.75-2.63-1.91-6.04-1.16-3.41-1.26-3.87-.09-.47-.07-.93.01-.48.15-.94.13-.46.37-.87.24-.41.57-.75.33-.35.73-.6.4-.26.85-.41.46-.15.93-.19.47-.03.94.04.47.08.9.27.44.18.82.47.38.29.69.66.3.36.5.8.2.43.2.43h0z"/><path id="C" d="M239.487 135.532q0 0 1.16-3.41 1.16-3.41 1.91-6.04.75-2.63 1.4-5.48.66-2.86.9-5.73.25-2.88.37-6 .11-3.13.24-6.73.13-3.6.35-7.79.21-4.19.33-8.25.11-4.07.1-7.69-.02-3.63.4-7.62.42-3.99 1.02-7.95.59-3.96.76-7.4.18-3.43.15-6.41-.02-2.98-.13-5.38-.11-2.4-.24-4.55-.13-2.15-.36-5.84-.24-3.68-.43-5.97-.19-2.29-.32-5.62-.13-3.34 1.94-9.07 2.07-5.73 7.94-5.35 5.88.39 10.75 2.67 4.87 2.28 9.24 4.02 4.37 1.74 9.2 3.32 4.84 1.57 10.79 2.26 5.95.69 13.46 1.05 7.5.36 14.5.55 7 .19 13.01.29 6.02.11 10.09.13 4.08.02 6.57-.19 2.49-.22 4.69-.41 2.19-.2 4.64-.35 2.45-.14 4.64-.29 2.19-.14 4.66.16 2.48.29 4.63.34 2.14.05 4.36.46 2.22.41 4.69.43 2.46.01 6.48-.12 4.02-.13 6.77-.07 2.75.05 5.44.09 2.69.03 5.24-.09 2.55-.13 4.85-.23 2.3-.1 4.12-.19 1.82-.09 2.56 0 .74.09 1.44.35.69.27 1.31.69.61.42 1.11.98.49.56.84 1.22.34.66.52 1.38.18.73.18 1.47 0 .75-.18 1.47-.18.72-.53 1.38-.34.66-.84 1.22-.49.56-1.1.98-.62.42-1.31.69-.7.26-1.44.35-.74.09 2.29-2.33 3.02-2.43 3.06 1.3.04 3.73-.06 6.52-.1 2.78-.17 5.49-.07 2.7-.35 6.51-.28 3.81-.44 7.32-.15 3.52-.25 6.91-.1 3.39.19 6.47.29 3.07.34 6.94.05 3.87.06 7.39.02 3.52.09 6.53.07 3.02.5 5.52.43 2.5.7 4.96.28 2.46 1.03 4.88.74 2.41 1.2 5.5.46 3.09.7 5.54.24 2.45.51 6.19.27 3.74.44 6.36.17 2.63.3 5.11.13 2.47-1.45 6.1-1.58 3.63-4.73 4.51-3.14.88-7.34-.06-4.2-.94-9.17-1.95-4.98-1.02-10.41-1.58-5.44-.57-12.16-1.69-6.72-1.12-12.78-1.64-6.06-.53-12.05-.81-6-.28-11.2-.44-5.21-.15-9.32-.22-4.12-.06-7.76 0-3.65.07-6.72.21-3.07.14-5.8-.09-2.74-.23-5.86-.12-3.13.1-5.81.3-2.69.2-6.79.35-4.11.14-8.1.26-3.99.11-6.49.25-2.51.14-5.12.25-2.62.11-5.8.18-3.17.07-5.71.19-2.55.11-4.85.16-2.31.05-3.34-.12-1.03-.17-1.95-.65-.93-.49-1.65-1.25-.71-.76-1.15-1.71-.44-.94-.56-1.98-.11-1.04.12-2.06.22-1.02.76-1.91.54-.9 1.34-1.57.79-.68 1.76-1.07.97-.38 2.02-.44 1.04-.06 2.05.22 1 .28 1.87.87.86.59 1.5 1.42.63.83.96 1.82.34.99.34 2.03 0 1.05-.34 2.04-.33.98-.96 1.81-.64.83-1.5 1.42-.87.59-1.87.87-1.01.28-2.05.22-1.05-.06-2.02-.45-.97-.38-1.77-1.06-.79-.68-1.33-1.57-.54-.89-.76-1.91-.23-1.02-.11-2.06.11-1.04.55-1.98.44-.95 1.16-1.71.71-.76 1.64-1.25.92-.49 1.95-.66 1.03-.17 1.03-.17 0 0 2.31.05 2.3.05 4.85.17 2.54.12 5.71.19 3.18.07 5.8.18 2.61.11 5.12.25 2.51.14 6.5.26 3.99.12 8.14.27 4.14.16 6.98.45 2.85.28 6.36.85 3.52.56 5.67 1.1 2.16.53 5.23.69 3.07.15 6.72.24 3.66.08 7.79.08 4.13-.01 9.38-.03 5.26-.02 11.38.02 6.12.04 12.48.26 6.36.22 12.78.86 6.43.64 12.27.65 5.84.01 11.33.33 5.48.33 7.42 2.32 1.94 1.99 2.07-.46.12-2.46.25-5.03.14-2.58.23-6.07.09-3.5.03-5.66-.06-2.16-.31-4.56-.25-2.4-1.16-5.76-.91-3.36-.97-5.54-.06-2.19-.41-5.28-.36-3.08-.35-6.05.01-2.98-.11-6.39-.11-3.42-.39-6.95-.28-3.53-.74-7.13-.47-3.6-.57-7-.1-3.39-.26-6.91-.15-3.51-.43-7.32-.28-3.81-.35-6.52-.07-2.7-.18-7.61-.12-4.9-.01-7.08.1-2.19 3.2-5.37 3.09-3.18 3.83-3.09.74.09 1.44.35.69.27 1.31.69.61.42 1.1.98.5.56.84 1.22.35.66.53 1.38.18.72.18 1.47 0 .74-.18 1.47-.18.72-.52 1.38-.35.66-.85 1.22-.49.56-1.1.98-.62.42-1.31.69-.7.26-1.44.35-.74.09-2.56 0-1.82-.09-4.12-.19-2.3-.1-4.85-.23-2.55-.13-5.25-.1-2.69.04-5.45.09-2.76.05-6.04-.08-3.28-.13-5.89-.42-2.6-.3-5.74-1.13-3.14-.83-7.44-1.57-4.3-.74-6.48-.88-2.17-.14-4.63-.29-2.45-.16-4.65-.36-2.2-.2-4.7-.43-2.49-.23-6.58-.25-4.08-.02-10.12 0-6.04.01-13.1-.02-7.06-.02-14.78-.17-7.72-.15-14.36-.66-6.63-.51-11.77-1.76-5.14-1.24-9.94-2.56-4.8-1.32-8.99-2.67-4.2-1.35-7.64-2.07-3.45-.72-1.38.05 2.07.77 1.94 4.11-.14 3.34-.33 5.63-.2 2.3-.45 6.01-.26 3.71-.42 5.89-.16 2.19-.36 4.64-.19 2.46-.41 5.54-.22 3.08-.51 6.76-.28 3.68-.77 7.52-.49 3.84-.84 7.49-.34 3.65-.36 7.27-.03 3.63.07 7.71.09 4.07.26 8.31.16 4.23.18 7.94.01 3.72-.14 7.09-.15 3.37-.54 6.84-.39 3.47-1.23 6.61-.84 3.15-1.81 5.7-.97 2.56-2.09 5.98-1.12 3.41-1.32 3.85-.2.43-.51.79-.3.37-.68.66-.38.29-.82.47-.43.19-.9.27-.47.07-.94.04-.47-.04-.93-.19-.45-.15-.85-.41-.4-.25-.73-.6-.33-.34-.57-.75-.24-.41-.37-.87-.14-.46-.15-.94-.02-.46.07-.93.1-.46.1-.46h0z"/><path id="D" d="M22.354 334.207q0 0-.43 4.17-.44 4.17-.65 8.9-.21 4.72-1.08 11.08-.88 6.36-1.63 11.66-.76 5.31-1.47 10.59-.71 5.27-1.8 10.65-1.08 5.37-1.52 9.76-.44 4.39-.63 9.65-.19 5.25-.28 9.78-.08 4.52.26 8.6.34 4.08.89 8.08.55 3.99 1.64 6.98 1.09 2.99 1.76 5.66.67 2.68 2.81 3.14 2.15.46 6.52.78 4.37.33 10.44.54 6.07.22 13.97.36 7.9.14 15.82.24 7.91.1 15.83.17 7.92.07 14.7.12 6.79.05 12.33.09 5.54.03 10.17.06 4.63.02 8.5-.04 3.87-.07 7.41-.18 3.54-.12 5.81-.33 2.26-.22 5.85-.57 3.6-.35 7.87-.58 4.27-.24 7.17-.25 2.89-.02 5.63-.05 2.75-.04 6.98-.72 4.24-.68 6.78-.79 2.54-.12 5.13-.17 2.59-.04 1.99-4.36-.6-4.31-.63-10.27-.04-5.95 1.2-12.93 1.25-6.98 2.99-14.42 1.75-7.43 2.89-13.5 1.15-6.08 2.06-10.6.91-4.52 1.21-8.21.3-3.68.26-6.4-.04-2.71-.14-5.35-.09-2.64-.37-6.09-.28-3.44-.5-5.84-.22-2.4-.44-4.6-.22-2.2-.39-4.66-.17-2.47-6.66-.5-6.5 1.98-15.23 1.98-8.73.01-18.08-.1-9.36-.11-18.65-.24-9.28-.12-18.92-.23-9.64-.11-18.68-.2-9.03-.09-17.8-.15-8.78-.07-15.92-.12-7.15-.05-12.46-.09-5.32-.04-9.48-.04-4.15 0-6.68.23-2.53.23-5.36.6-2.83.36-5.98.36-3.15-.01-6.12-2.82-2.97-2.81-3.34-3.48-.37-.66-.52-1.4-.14-.75-.03-1.5.1-.76.44-1.44.34-.68.88-1.21.54-.53 1.21-.87.68-.33 1.43-.43.76-.1 1.5.04.75.15 1.41.52.66.38 1.17.94.5.56.8 1.26.3.7.36 1.46.06.75-.12 1.49-.19.74-.6 1.38-.41.64-1.01 1.11-.59.48-1.3.74-.72.26-1.48.28-.76.02-1.48-.21-.73-.22-1.33-.67-.62-.44-1.06-1.06-.44-.62-.67-1.35-.22-.72-.19-1.48.02-.76.28-1.48.27-.71.74-1.3.48-.58 1.11-.99.64-.41 1.38-.59.74-.18 1.5-.12.75.07 1.45.37.7.3 1.26.81.57.5.57.5 0 0 2.46 1.74 2.45 1.73 5.28 2.1 2.83.37 5.36.6 2.53.23 6.68.23 4.16-.01 9.48-.05 5.31-.04 12.46-.09 7.14-.05 15.91-.13 8.77-.07 17.8-.18 9.03-.11 18.66-.26 9.63-.16 18.88-.39 9.25-.24 18.5-.6 9.26-.37 17.52-.97 8.26-.6 14.38-1.72 6.13-1.12 9.53-.94 3.4.18 5.56 1.49 2.17 1.32 3.3 3.63 1.13 2.3.96 5.15-.17 2.85-.39 5.06-.22 2.21-.46 4.63-.23 2.42-.59 5.92-.36 3.51-.58 6.25-.22 2.74-.55 5.55-.34 2.81-.75 6.76-.4 3.95-1.14 8.47-.74 4.51-1.68 10.77-.95 6.25-2.35 13.54-1.39 7.28-2.18 13.49-.78 6.2-.24 11.63.55 5.43 1.62 10.42 1.07 5 .27 8.78-.8 3.78-2.8 5.13-2 1.36-4.33 1.5-2.33.14-4.83.15-2.5.01-6.71.09-4.21.09-6.92.43-2.7.34-5.46.31-2.75-.04-5.64-.05-2.9-.02-7.17-.25-4.27-.24-7.87-.59-3.59-.35-5.85-.56-2.27-.22-5.81-.33-3.54-.12-7.41-.18-3.87-.07-8.5-.05-4.63.03-10.17.06-5.54.04-12.33.08-6.78.05-14.7.11-7.92.06-15.84.15-7.92.08-15.84.18-7.92.1-14.06.22-6.14.12-10.84.23-4.7.1-8.19-.6-3.5-.71-5.14-4.2-1.64-3.49-1.8-5.86-.17-2.36-1.05-5.87-.87-3.51-1.38-7.64-.5-4.14-.85-8.48-.35-4.34-.27-8.91.08-4.58.26-10 .19-5.42.65-10.08.45-4.66 1.48-9.86 1.02-5.2 1.69-10.5.67-5.3 1.37-10.6.71-5.3 1.48-11.38.78-6.09.89-10.99.12-4.9.44-9.08.33-4.17.41-4.54.08-.37.24-.71.17-.33.41-.62.24-.29.54-.52.31-.22.66-.37.34-.14.72-.2.37-.05.74-.02.37.04.73.16.36.12.67.33.32.2.58.48.26.27.44.6.19.33.29.69.1.36.11.74.01.37.01.37h0z"/></defs></svg>
