<svg xmlns="http://www.w3.org/2000/svg" width="473.927" height="321.084" fill="#ffffff"><path d="M22.354 10.28q0 0-.43 4.17-.44 4.17-.65 8.9-.21 4.72-1.08 11.08-.88 6.36-1.63 11.66-.76 5.31-1.47 10.59-.71 5.27-1.8 10.65-1.08 5.37-1.52 9.76-.44 4.39-.63 9.65-.19 5.25-.28 9.78-.08 4.52.26 8.6.34 4.08.89 8.08.55 3.99 1.64 6.98 1.09 2.99 1.76 5.66.67 2.68 2.81 3.14 2.15.46 6.52.78 4.37.33 10.44.54 6.07.22 13.97.36 7.9.14 15.82.24 7.91.1 15.83.17 7.92.07 14.7.12 6.79.05 12.33.09 5.54.03 10.17.06 4.63.02 8.5-.04 3.87-.07 7.41-.18 3.54-.12 5.81-.33 2.26-.22 5.85-.57 3.6-.35 7.87-.58 4.27-.24 7.17-.25 2.89-.02 5.63-.05 2.75-.04 6.98-.72 4.24-.68 6.78-.79 2.54-.12 5.13-.17 2.59-.04 1.99-4.36-.6-4.31-.63-10.27-.04-5.95 1.2-12.93 1.25-6.98 2.99-14.42 1.75-7.43 2.89-13.5 1.15-6.08 2.06-10.6.91-4.52 1.21-8.21.3-3.68.26-6.4-.04-2.71-.14-5.35-.09-2.64-.37-6.09-.28-3.44-.5-5.84-.22-2.4-.44-4.6-.22-2.2-.39-4.66-.17-2.47-6.66-.5-6.5 1.98-15.23 1.98-8.73.01-18.08-.1-9.36-.11-18.65-.24-9.28-.12-18.92-.23-9.64-.11-18.68-.2-9.03-.09-17.8-.15-8.78-.07-15.92-.12-7.15-.05-12.46-.09-5.32-.04-9.48-.04-4.15 0-6.68.23-2.53.23-5.36.6-2.83.36-5.98.36-3.15-.01-6.12-2.82-2.97-2.81-3.34-3.48-.37-.66-.52-1.4-.14-.75-.03-1.5.1-.76.44-1.44.34-.68.88-1.21.54-.53 1.21-.87.68-.33 1.43-.43.76-.1 1.5.04.75.15 1.41.52.66.38 1.17.94.5.56.8 1.26.3.7.36 1.46.06.75-.12 1.49-.19.74-.6 1.38-.41.64-1.01 1.11-.59.48-1.3.74-.72.26-1.48.28-.76.02-1.48-.21-.73-.22-1.33-.67-.62-.44-1.06-1.06-.44-.62-.67-1.35-.22-.72-.19-1.48.02-.76.28-1.48.27-.71.74-1.3.48-.58 1.11-.99.64-.41 1.38-.59.74-.18 1.5-.12.75.07 1.45.37.7.3 1.26.81.57.5.57.5 0 0 2.46 1.74 2.45 1.73 5.28 2.1 2.83.37 5.36.6 2.53.23 6.68.23 4.16-.01 9.48-.05 5.31-.04 12.46-.09 7.14-.05 15.91-.13 8.77-.07 17.8-.18 9.03-.11 18.66-.26 9.63-.16 18.88-.39 9.25-.24 18.5-.6 9.26-.37 17.52-.97 8.26-.6 14.38-1.72 6.13-1.12 9.53-.94 3.4.18 5.56 1.49 2.17 1.32 3.3 3.63 1.13 2.3.96 5.15-.17 2.85-.39 5.06-.22 2.21-.46 4.63-.23 2.42-.59 5.92-.36 3.51-.58 6.25-.22 2.74-.55 5.55-.34 2.81-.75 6.76-.4 3.95-1.14 8.47-.74 4.51-1.68 10.77-.95 6.25-2.35 13.54-1.39 7.28-2.18 13.49-.78 6.2-.24 11.63.55 5.43 1.62 10.42 1.07 5 .27 8.78-.8 3.78-2.8 5.13-2 1.36-4.33 1.5-2.33.14-4.83.15-2.5.01-6.71.09-4.21.09-6.92.43-2.7.34-5.46.31-2.75-.04-5.64-.05-2.9-.02-7.17-.25-4.27-.24-7.87-.59-3.59-.35-5.85-.56-2.27-.22-5.81-.33-3.54-.12-7.41-.18-3.87-.07-8.5-.05-4.63.03-10.17.06-5.54.04-12.33.08-6.78.05-14.7.11-7.92.06-15.84.15-7.92.08-15.84.18-7.92.1-14.06.22-6.14.12-10.84.23-4.7.1-8.19-.6-3.5-.71-5.14-4.2-1.64-3.49-1.8-5.86-.17-2.36-1.05-5.87-.87-3.51-1.38-7.64-.5-4.14-.85-8.48-.35-4.34-.27-8.91.08-4.58.26-10 .19-5.42.65-10.08.45-4.66 1.48-9.86 1.02-5.2 1.69-10.5.67-5.3 1.37-10.6.71-5.3 1.48-11.38.78-6.09.89-10.99.12-4.9.44-9.08.33-4.17.41-4.54.08-.37.24-.71.17-.33.41-.62.24-.29.54-.52.31-.22.66-.37.34-.14.72-.2.37-.05.74-.02.37.04.73.16.36.12.67.33.32.2.58.48.26.27.44.6.19.33.29.69.1.36.11.74.01.37.01.37h0zm-3.992 172.792q0 0 1.12 3.41 1.12 3.42 2.09 5.98.97 2.55 1.81 5.7.84 3.14 1.23 6.61.39 3.47.54 6.84.15 3.37.14 7.09-.02 3.71-.18 7.94-.17 4.24-.26 8.31-.1 4.08-.07 7.71.02 3.62.36 7.27.35 3.65.84 7.49.49 3.84.77 7.52.29 3.68.51 6.76.22 3.08.41 5.54.2 2.45.36 4.64.16 2.18.42 5.89.25 3.71.45 6.01.19 2.29.33 5.63.13 3.34-1.94 4.11-2.07.77 1.38.05 3.44-.72 7.64-2.07 4.19-1.35 8.99-2.67 4.8-1.32 9.94-2.56 5.14-1.25 11.77-1.76 6.64-.51 14.36-.66 7.72-.15 14.78-.17 7.06-.03 13.1-.02 6.04.02 10.12 0 4.09-.02 6.58-.25 2.5-.23 4.7-.43 2.2-.2 4.65-.36 2.46-.15 4.63-.29 2.18-.14 6.48-.88 4.3-.74 7.44-1.57 3.14-.83 5.74-1.13 2.61-.29 5.89-.42 3.28-.13 6.04-.08 2.76.05 5.45.09 2.7.03 5.25-.1 2.55-.13 4.85-.23 2.3-.1 4.12-.19 1.82-.09 2.56 0 .74.09 1.44.35.69.27 1.31.69.61.42 1.1.98.5.56.85 1.22.34.66.52 1.38.18.73.18 1.47 0 .75-.18 1.47-.18.72-.53 1.38-.34.66-.84 1.22-.49.56-1.1.98-.62.42-1.31.69-.7.26-1.44.35-.74.09-3.83-3.09-3.1-3.18-3.2-5.37-.11-2.18.01-7.08.11-4.91.18-7.61.07-2.71.35-6.52.28-3.81.43-7.32.16-3.52.26-6.91.1-3.4.57-7 .46-3.6.74-7.13.28-3.53.39-6.95.12-3.41.11-6.39-.01-2.97.35-6.05.35-3.09.41-5.28.06-2.18.97-5.54.91-3.36 1.16-5.76.25-2.4.31-4.56.06-2.16-.03-5.66-.09-3.49-.23-6.07-.13-2.57-.25-5.03-.13-2.45-2.07-.46-1.94 1.99-7.42 2.32-5.49.32-11.33.33-5.84.01-12.27.65-6.42.64-12.78.86-6.36.22-12.48.26-6.12.04-11.38.02-5.25-.02-9.38-.03-4.13 0-7.79.08-3.65.09-6.72.24-3.07.16-5.23.69-2.15.54-5.67 1.1-3.51.57-6.36.85-2.84.29-6.98.45-4.15.15-8.14.27-3.99.12-6.5.26-2.51.14-5.12.25-2.62.11-5.8.18-3.17.07-5.71.19-2.55.12-4.85.17-2.31.05-3.34-.12-1.03-.17-1.95-.66-.93-.49-1.65-1.25-.71-.76-1.15-1.71-.44-.95-.56-1.99-.11-1.03.12-2.05.22-1.03.76-1.91.54-.9 1.34-1.57.79-.68 1.76-1.07.97-.38 2.02-.44 1.04-.05 2.05.22 1 .28 1.87.87.86.59 1.5 1.42.63.83.96 1.81.34.99.34 2.04 0 1.04-.34 2.03-.33.99-.96 1.82-.64.84-1.5 1.42-.87.59-1.87.87-1.01.28-2.05.22-1.05-.06-2.02-.44-.97-.39-1.77-1.07-.79-.67-1.33-1.57-.54-.89-.76-1.92-.23-1.02-.11-2.05.11-1.04.55-1.98.44-.95 1.16-1.71.71-.76 1.64-1.25.92-.49 1.95-.65 1.03-.17 1.03-.17 0 0 2.31.05 2.3.05 4.85.16 2.54.12 5.71.19 3.18.07 5.8.18 2.61.11 5.12.25 2.5.14 6.49.25 3.99.12 8.1.26 4.1.15 6.79.35 2.68.2 5.81.3 3.12.11 5.86-.12 2.73-.23 5.8-.09 3.07.14 6.72.21 3.64.06 7.76 0 4.11-.07 9.32-.22 5.2-.16 11.2-.44 5.99-.28 12.05-.81 6.06-.52 12.78-1.64 6.72-1.12 12.16-1.69 5.43-.56 10.41-1.58 4.97-1.01 9.17-1.95 4.2-.94 7.34-.06 3.15.88 4.73 4.51 1.58 3.63 1.45 6.1-.13 2.48-.3 5.11-.17 2.62-.44 6.36-.27 3.74-.51 6.19-.24 2.45-.7 5.54-.46 3.09-1.2 5.5-.75 2.42-1.03 4.88-.27 2.46-.7 4.96-.43 2.5-.5 5.52-.07 3.01-.09 6.53-.01 3.52-.06 7.39-.05 3.87-.34 6.94-.29 3.08-.19 6.47.1 3.39.25 6.91.16 3.51.44 7.32.28 3.81.35 6.51.07 2.71.17 5.49.1 2.79.06 6.52-.04 3.73-3.06 1.3-3.03-2.42-2.29-2.33.74.09 1.44.35.69.27 1.31.69.61.42 1.1.98.5.56.84 1.22.35.66.53 1.38.18.72.18 1.47 0 .74-.18 1.47-.18.72-.52 1.38-.35.66-.84 1.22-.5.56-1.11.98-.62.42-1.31.69-.7.26-1.44.35-.74.09-2.56 0-1.82-.09-4.12-.19-2.3-.1-4.85-.23-2.55-.12-5.24-.09-2.69.04-5.44.09-2.75.06-6.77-.07-4.02-.13-6.48-.12-2.47.02-4.69.43-2.22.41-4.36.46-2.15.05-4.63.34-2.47.3-4.66.16-2.19-.15-4.64-.29-2.45-.15-4.64-.35-2.2-.19-4.69-.41-2.49-.21-6.57-.19-4.07.02-10.09.13-6.01.1-13.01.29-7 .19-14.5.55-7.51.36-13.46 1.05-5.95.69-10.79 2.26-4.83 1.58-9.2 3.32-4.37 1.74-9.24 4.02-4.87 2.28-10.75 2.67-5.87.38-7.94-5.35-2.07-5.73-1.94-9.07.13-3.33.32-5.62.19-2.29.43-5.97.23-3.69.36-5.84.13-2.15.24-4.55.11-2.4.13-5.38.03-2.98-.15-6.41-.17-3.44-.76-7.4-.6-3.96-1.02-7.95-.42-3.99-.4-7.62.01-3.62-.1-7.69-.12-4.06-.33-8.25-.22-4.19-.35-7.79-.13-3.6-.24-6.73-.12-3.12-.37-6-.24-2.87-.9-5.73-.65-2.85-1.4-5.48-.75-2.63-1.91-6.04-1.16-3.41-1.26-3.87-.09-.47-.07-.93.01-.48.15-.94.13-.46.37-.87.24-.41.57-.75.33-.35.73-.6.4-.26.85-.41.46-.15.93-.19.47-.03.94.04.47.08.9.27.44.18.82.47.38.29.69.66.3.36.5.8.2.43.2.43h0zM224.298 64.924q0 0 4.88 1.4 4.88 1.39 7.63 1.77 2.75.39 5.01.9 2.25.51 6.06.58 3.81.07 7.01.18 3.21.11 6.86.26 3.65.14 6.72.14 3.08 0 6.97.85 3.89.86 5.15 2.79 1.25 1.94 1.55 4.86.3 2.93.34 5.9.03 2.97.27 6.24.25 3.27.27 7.21.02 3.94-.06 7.88-.08 3.94-.27 8.27-.18 4.34-.33 9.21-.15 4.88-.26 9.23-.12 4.35-.08 8.09.03 3.75.16 6.86.13 3.11.62 5.7.5 2.58.82 5.04.33 2.46.86 4.74.53 2.27.83 5.08.31 2.8.41 5.91.11 3.1-.27 6.58-.37 3.48-.53 6.58-.15 3.1-.18 5.95-.02 2.84 0 5.57.03 2.72.1 5.02.07 2.29.25 5.9.18 3.61.31 7.51.12 3.9.22 7.85.09 3.95 1.05 7.21.96 3.26-.19 8.41-1.16 5.15-4.48 6.53-3.32 1.37-6.22 1.54-2.91.17-5.44.23-2.53.06-5.31.1-2.78.03-5.98.04-3.21 0-5.41.04-2.21.05-4.77.07-2.56.03-4.59.04-2.04.02-3.12-.16-1.09-.18-2.06-.69-.97-.52-1.73-1.32-.75-.79-1.21-1.79-.46-1-.58-2.09-.12-1.09.12-2.16.23-1.08.8-2.02.56-.94 1.4-1.65.84-.71 1.86-1.12 1.02-.41 2.12-.46 1.09-.06 2.15.23 1.06.29 1.97.91.91.62 1.57 1.49.67.88 1.02 1.92.35 1.04.35 2.14 0 1.1-.35 2.14-.35 1.04-1.02 1.91-.66.88-1.57 1.49-.91.62-1.97.91-1.06.3-2.15.24-1.1-.06-2.12-.47-1.02-.41-1.86-1.12-.84-.71-1.4-1.65-.57-.94-.8-2.01-.24-1.08-.12-2.17.12-1.09.58-2.09.46-1 1.22-1.79.75-.8 1.72-1.31.97-.52 2.06-.7 1.08-.17 1.08-.17 0 0 2.04.01 2.03.02 4.59.04 2.56.03 4.77.07 2.2.04 5.4.04 3.21.01 5.97.04 2.76.03 6.38.05 3.62.03 6 .37 2.38.33.57 1.61-1.81 1.28-2.56-1.1-.75-2.39-.88-5.11-.13-2.72-.04-6.67.09-3.95.22-7.86.13-3.9.32-7.52.2-3.63.29-5.95.1-2.32.18-5.1.07-2.77.17-5.73.1-2.95.24-6.34.14-3.39.45-6.26.32-2.86.27-5.75-.06-2.89-.14-5.27-.08-2.37-.44-5.12-.37-2.76-.37-4.99 0-2.24-.26-5.33-.27-3.09-.14-6.2.13-3.12.16-6.86.02-3.75-.1-8.09-.12-4.34-.3-9.2-.17-4.86-.42-9.14-.25-4.28-.47-8.09-.23-3.82-.55-7.41-.33-3.58-.89-7.31-.55-3.73-.87-7.98-.31-4.25-3.39-4.27-3.09-.02-6.78.09-3.69.12-7.05.13-3.36.02-5.9-.18-2.55-.19-6.56-1.29-4.01-1.1-6.97-1.68-2.96-.58-7.96-1.47-4.98-.88-5.51-1.07-.52-.19-.98-.5-.47-.31-.84-.72-.38-.41-.64-.9-.27-.49-.41-1.03-.14-.54-.15-1.1-.01-.54.12-1.09.12-.54.37-1.04.25-.49.62-.92.36-.42.81-.74.46-.32.98-.53.51-.2 1.06-.28.56-.07 1.1-.02.55.06.55.06h0z"/><path d="M284.013 146.068q0 0 2.64 0 2.65-.01 6.26-.66 3.62-.66 6.8-.9 3.19-.23 6.05-.34 2.86-.11 3.81.05.95.15 1.79.59.85.45 1.51 1.14.66.7 1.07 1.57.4.86.51 1.82.11.95-.1 1.88-.2.93-.69 1.75-.49.83-1.22 1.45-.73.62-1.62.98-.89.35-1.84.41-.96.05-1.88-.2-.93-.25-1.72-.79-.8-.53-1.38-1.29-.58-.76-.89-1.67-.31-.9-.31-1.86 0-.95.3-1.86.3-.91.88-1.68.58-.76 1.37-1.3.79-.54 1.71-.8.93-.26 1.88-.21.96.05 1.85.4.89.35 1.62.97.74.62 1.23 1.44.5.82.71 1.75.2.94.1 1.89-.1.94-.5 1.81-.4.87-1.05 1.57-.66.7-1.51 1.15-.84.45-1.79.61-.94.16-.94.16 0 0-1.8-.02-1.79-.02-4.13-.1-2.34-.08-5.46-.03-3.12.06-5.52.42-2.41.37-5.08.36-2.66 0-3.28-.07-.63-.08-1.22-.3-.59-.23-1.11-.59-.52-.35-.94-.83-.42-.47-.71-1.03-.29-.56-.44-1.17-.16-.61-.16-1.24 0-.63.16-1.24.15-.61.44-1.17.29-.56.71-1.03.42-.48.94-.84.52-.35 1.11-.58.59-.22 1.22-.3.62-.07.62-.07h0zm55.481-30.745q0 0-.03 3.03-.03 3.04.02 5.47.06 2.42.44 4.6.38 2.18.9 4.63.53 2.44 2.29 6.38 1.76 3.94 2.27 6.91.51 2.97.68 5.73.18 2.76.24 5.45.07 2.69.09 5.34.02 2.66.38 4.93.35 2.27 1.23 6.27.88 4 1.18 7.17.29 3.16.41 7.09.11 3.94-.04 4.89-.15.95-.6 1.81-.44.85-1.14 1.52-.7.66-1.57 1.07-.87.41-1.83.52-.96.11-1.9-.09-.94-.2-1.77-.7-.83-.49-1.46-1.22-.63-.73-.99-1.63-.36-.89-.42-1.85-.05-.97.2-1.9.25-.93.79-1.73.54-.8 1.3-1.39.77-.58 1.68-.9.91-.31 1.88-.31.96-.01 1.87.3.92.3 1.69.88.77.58 1.32 1.37.54.8.8 1.73.27.92.22 1.89-.05.96-.4 1.86-.35.9-.97 1.63-.63.74-1.45 1.24-.82.5-1.76.72-.94.21-1.9.11-.96-.1-1.84-.5-.88-.4-1.58-1.06-.7-.66-1.16-1.51-.45-.85-.62-1.8-.16-.95-.16-.95 0 0 .04-2.12.03-2.11.08-5.08.05-2.97-.07-5.73-.13-2.76-.69-5.26-.56-2.5-.99-5.49-.42-3-.45-5.59-.03-2.59-.09-5.1-.06-2.51-.17-4.83-.12-2.32-.98-6.15-.87-3.83-1.99-6.59-1.12-2.76-1.67-5.52-.56-2.76-.94-5.68-.38-2.92-.32-5.36.05-2.43.02-5.47-.03-3.03.05-3.62.07-.6.28-1.16.21-.56.56-1.05.34-.5.79-.9.45-.39.98-.67.53-.28 1.11-.43.58-.14 1.18-.14.6 0 1.18.14.58.15 1.11.43.53.28.98.67.45.4.79.9.35.49.56 1.05.21.56.28 1.16.08.59.08.59h0z"/><path d="M329.762 105.291q0 0 2.26-.45 2.27-.46 5-.69 2.73-.23 5.79-.28 3.06-.05 6.25-.03 3.19.02 5.68-.04 2.49-.06 5.07-.1 2.58-.04 5.19-.06 2.62-.03 5.94.41 3.33.44 5.95.59 2.63.14 5.63.25 3 .11 5.42.08 2.43-.02 4.97-.03 2.54-.02 4.76-.07 2.22-.06 5.07-.03 2.84.02 5.56.03 2.73 0 6.58-.13 3.86-.13 6.58-.79 2.73-.66 7.4-.78 4.68-.12 6.96-.14 2.28-.02 5.5-.13 3.22-.1 6.78-.46 3.56-.35 6.34-.51 2.78-.16 7.44 1.06 4.66 1.21 6.08 3.76 1.42 2.54 1.61 5.55.18 3.02.07 6.46-.12 3.44-.24 6.78-.12 3.34-.56 6.61-.44 3.27-.66 6.22-.22 2.94-.71 6.05-.5 3.12-.71 5.99-.22 2.87-.3 5.63-.08 2.76-.09 5.45-.02 2.68.02 4.96.05 2.29.19 5.89.14 3.6.27 6.57.14 2.98.22 6.6.08 3.62.18 6.22.09 2.6.21 4.84.12 2.24-1.72 5.86-1.84 3.62-4.53 4.3-2.69.69-4.98.73-2.29.04-5.13-.05-2.83-.09-6.31-.3-3.47-.21-7.61-.56-4.13-.35-7.78-.5-3.66-.16-7.49-.32-3.83-.16-7.35-.22-3.53-.06-6.93-.08-3.4-.03-6.35.03-2.96.05-5.44.47-2.48.43-5.34.67-2.87.24-5.22.4-2.35.17-6.01.4-3.66.24-6.65.41-2.99.17-5.87.36-2.89.18-5.94.27-3.05.09-4.02-.06-.97-.16-1.83-.62-.87-.46-1.54-1.17-.68-.72-1.09-1.61-.41-.89-.52-1.86-.1-.98.11-1.93.21-.96.72-1.8.5-.84 1.25-1.48.75-.63 1.66-.99.91-.37 1.89-.42.98-.05 1.92.21.95.26 1.76.81.81.55 1.4 1.33.6.78.91 1.71.31.93.31 1.91 0 .98-.31 1.91-.31.93-.91 1.71-.59.78-1.4 1.33-.82.55-1.76.82-.95.26-1.92.21-.98-.06-1.89-.42-.92-.36-1.66-1-.75-.63-1.26-1.47-.5-.84-.71-1.8-.21-.96-.11-1.94.11-.97.52-1.86.41-.89 1.09-1.6.67-.71 1.54-1.17.87-.46 1.83-.62.97-.16.97-.16 0 0 3.05.09 3.05.09 5.93.28 2.87.18 5.84.34 2.96.15 6.51.3 3.55.16 5.77.18 2.22.03 4.75-.05 2.54-.08 5.62-.42 3.07-.34 6.04-.28 2.96.05 6.36.03 3.4-.02 6.92-.08 3.53-.06 7.36-.23 3.83-.16 7.48-.32 3.65-.16 7.77-.51 4.13-.36 7.57-.59 3.44-.23 8.01-.43 4.58-.19 3.41 1.95-1.17 2.14-1.05-.1.12-2.24.21-4.84.1-2.6.18-6.22.08-3.63.22-6.61.14-2.98.3-6.6.15-3.63.23-5.94.07-2.31.12-5.08.05-2.76.14-5.69.08-2.92.24-6.27.16-3.35.56-5.94.4-2.59.5-5.94.09-3.34.39-5.91.29-2.58.12-5.86-.17-3.27-.24-7.72-.08-4.44-2.27-4.28-2.18.16-6.71.57-4.53.41-7.73.32-3.2-.09-5.45-.09-2.24 0-4.8.08-2.56.07-5.21.11-2.66.04-4.87.43-2.22.38-6.11.25-3.89-.13-6.62-.13-2.73 0-5.58.02-2.85.02-5.08-.04-2.24-.06-4.81-.11-2.58-.04-5.06-.12-2.47-.08-5.65-.11-3.18-.03-6.14-.2-2.97-.18-5.67-.5-2.69-.32-5.3-.34-2.6-.02-5.17-.04-2.56-.03-5.03-.07-2.47-.04-5.59.04-3.12.08-5.97.17-2.85.09-5.09.18-2.24.09-4.53.39-2.29.31-2.87.34-.57.02-1.14-.09-.57-.12-1.1-.36-.53-.25-.98-.62-.45-.36-.8-.82-.35-.47-.58-1-.23-.54-.33-1.11-.09-.57-.05-1.14.05-.58.23-1.13.18-.55.49-1.05.31-.49.73-.89.41-.41.92-.7.5-.29 1.06-.46.55-.16.55-.16h0z"/></svg>
